<?xml version="1.0" encoding="UTF-8"?>
<svg width="21px" height="18px" viewBox="0 0 21 18" version="1.1" xmlns="http://www.w3.org/2000/svg" xmlns:xlink="http://www.w3.org/1999/xlink">
    <!-- Generator: Sketch 52.5 (67469) - http://www.bohemiancoding.com/sketch -->
    <title>Add Hex</title>
    <desc>Created with Sketch.</desc>
    <g id="Symbols" stroke="none" stroke-width="1" fill="none" fill-rule="evenodd">
        <path d="M15.9140255,1.6562842 L19.8515161,8.4062681 C19.9921407,8.66407981 20.0624531,8.94532914 20.0624531,9.25001609 C20.0624531,9.55470305 19.9921407,9.83595238 19.8515161,10.0937641 L15.8788693,16.843748 C15.7382446,17.1015597 15.5390262,17.3066377 15.2812145,17.4589809 C15.0234028,17.6113241 14.7421534,17.687496 14.4374665,17.687496 L6.56248525,17.687496 C6.2577983,17.687496 5.97654897,17.6113241 5.71873726,17.4589809 C5.46092555,17.3066377 5.2617071,17.1015597 5.12108243,16.843748 L1.14843566,10.0937641 C1.00781099,9.83595238 0.937498659,9.55470305 0.937498659,9.25001609 C0.937498659,8.94532914 1.01952953,8.66407981 1.18359182,8.4062681 L5.12108243,1.6562842 C5.2617071,1.39847249 5.46092555,1.1933945 5.71873726,1.04105129 C5.97654897,0.888708082 6.2577983,0.81253621 6.56248525,0.81253621 L14.4374665,0.81253621 C14.7421534,0.81253621 15.0234028,0.888708082 15.2812145,1.04105129 C15.5390262,1.1933945 15.7499632,1.39847249 15.9140255,1.6562842 Z M14.4374665,16 L18.3749571,9.25001609 L14.4374665,2.50003219 L6.56248525,2.50003219 L2.62499464,9.25001609 L6.56248525,16 L14.4374665,16 Z M14.9999651,9.81251475 C14.9999651,9.92970179 14.9589494,10.0293113 14.8769185,10.1113422 C14.7948877,10.193373 14.6952782,10.2343887 14.5780911,10.2343887 L11.4843485,10.2343887 L11.4843485,13.3281314 C11.4843485,13.4453184 11.4433328,13.5449279 11.3613019,13.6269588 C11.2792711,13.7089897 11.1796616,13.7500054 11.0624745,13.7500054 L9.9374772,13.7500054 C9.82029016,13.7500054 9.72068066,13.7089897 9.63864979,13.6269588 C9.55661891,13.5449279 9.51560321,13.4453184 9.51560321,13.3281314 L9.51560321,10.2343887 L6.42186058,10.2343887 C6.30467354,10.2343887 6.20506405,10.193373 6.12303317,10.1113422 C6.04100229,10.0293113 5.99998659,9.92970179 5.99998659,9.81251475 L5.99998659,8.68751743 C5.99998659,8.57033039 6.04100229,8.4707209 6.12303317,8.38869002 C6.20506405,8.30665915 6.30467354,8.26564344 6.42186058,8.26564344 L9.51560321,8.26564344 L9.51560321,5.17190082 C9.51560321,5.05471377 9.55661891,4.95510428 9.63864979,4.8730734 C9.72068066,4.79104253 9.82029016,4.75002682 9.9374772,4.75002682 L11.0624745,4.75002682 C11.1796616,4.75002682 11.2792711,4.79104253 11.3613019,4.8730734 C11.4433328,4.95510428 11.4843485,5.05471377 11.4843485,5.17190082 L11.4843485,8.26564344 L14.5780911,8.26564344 C14.6952782,8.26564344 14.7948877,8.30665915 14.8769185,8.38869002 C14.9589494,8.4707209 14.9999651,8.57033039 14.9999651,8.68751743 L14.9999651,9.81251475 Z" id="Add-Hex" fill="#354866"></path>
    </g>
</svg>