<?xml version="1.0" encoding="UTF-8"?>
<svg width="21px" height="22px" viewBox="0 0 21 22" version="1.1" xmlns="http://www.w3.org/2000/svg" xmlns:xlink="http://www.w3.org/1999/xlink">
    <!-- Generator: Sketch 52.5 (67469) - http://www.bohemiancoding.com/sketch -->
    <title>icon/Apps Light</title>
    <desc>Created with Sketch.</desc>
    <g id="Symbols" stroke="none" stroke-width="1" fill="none" fill-rule="evenodd">
        <g id="nav/Bar-Global-v2" transform="translate(-376.000000, -9.000000)">
            <g id="Group-6-Copy-2" transform="translate(336.000000, 0.000000)">
                <g id="icon/Apps-Light" transform="translate(38.000000, 8.000000)">
                    <path d="M12.2581544,21.9998502 C11.6839664,22.0052932 11.1084129,21.8624139 10.5915755,21.5712123 L4.7506976,18.2809061 C3.71633992,17.6985028 3.072512,16.6098986 3.06158809,15.4260415 L3.0001411,8.73997059 C2.98921719,7.55611352 3.61324552,6.45662327 4.6366793,5.85516945 L10.4161102,2.45940471 C10.9281684,2.1586778 11.5009909,2.00559283 12.0751789,2.00014981 C12.6493669,1.99470679 13.2249204,2.13758609 13.7417579,2.42878771 L19.5826357,5.71909392 C20.6169934,6.30149717 21.2608213,7.39010138 21.2717452,8.57395845 L21.3331922,15.2600294 C21.3441161,16.4438865 20.7200878,17.5433767 19.696654,18.1448306 L13.9172232,21.5405953 C13.4051649,21.8413222 12.8323424,21.9944072 12.2581544,21.9998502" id="fill/-1" stroke="#5361FD" stroke-width="2"></path>
                    <path d="M13.7582777,10.0981611 C13.4180159,9.75009361 13.4180159,9.18652201 13.7582777,8.83916341 C14.0985395,8.49109592 14.6504883,8.49180482 14.9907501,8.83916341 C15.3317223,9.18652201 15.3317223,9.75009361 14.9907501,10.0981611 C14.6511986,10.4462286 14.0985395,10.4462286 13.7582777,10.0981611 M13.1843079,13.4597416 C13.1843079,13.4597416 17.2035175,10.5660319 16.7574122,7.25336508 C16.7474672,7.18034889 16.723315,7.13285292 16.6934799,7.10024374 C16.6622241,7.07047015 16.6160508,7.04565882 16.5443046,7.0350254 C13.3008067,6.58133253 10.4671858,10.6851262 10.4671858,10.6851262 C8.00863429,10.3909348 8.18693433,10.8807813 7.06598828,13.5682026 C6.85074959,14.0807337 7.19882536,14.2579575 7.58028799,14.1133429 C7.96175062,13.9701461 8.80352569,13.6525611 8.80352569,13.6525611 L10.2782304,15.1575454 C10.2782304,15.1575454 9.96709326,16.0174351 9.82644224,16.4066186 C9.68579121,16.7965109 9.85840838,17.1516673 10.360632,16.9333276 C12.9932214,15.7870442 13.4727135,15.9699392 13.1843079,13.4597416" id="fill/-3" fill="#5361FD" fill-rule="evenodd"></path>
                </g>
            </g>
        </g>
    </g>
</svg>