<?xml version="1.0" encoding="UTF-8"?>
<svg width="16px" height="16px" viewBox="0 0 16 16" version="1.1" xmlns="http://www.w3.org/2000/svg" xmlns:xlink="http://www.w3.org/1999/xlink">
    <!-- Generator: Sketch 52.5 (67469) - http://www.bohemiancoding.com/sketch -->
    <title>gear</title>
    <desc>Created with Sketch.</desc>
    <g id="Symbols" stroke="none" stroke-width="1" fill="none" fill-rule="evenodd">
        <g id="nav/Bar-Global-v3" transform="translate(-890.000000, -17.000000)" fill="#5361FD">
            <g id="icon/Gear" transform="translate(890.000000, 17.000000)">
                <path d="M13.6249684,9.04167781 L14.8749654,9.78572365 C14.9543305,9.82540595 15.0088937,9.88492961 15.0386555,9.96429465 C15.0684174,10.0436597 15.0733778,10.1230243 15.0535364,10.2023893 C14.7162358,11.253974 14.1706019,12.1865117 13.4166356,13.0000017 C13.3571119,13.0595254 13.2876678,13.0992077 13.2083028,13.119049 C13.1289377,13.1388904 13.0495731,13.1289695 12.9702081,13.0892872 L11.7202111,12.3452414 C11.1844981,12.8015893 10.5793409,13.1488109 9.9047392,13.3869055 L9.9047392,14.8452354 C9.9047392,14.9246004 9.87993782,14.999005 9.83033461,15.0684492 C9.78073141,15.1378933 9.71624774,15.182536 9.63688269,15.2023774 C8.5456153,15.4404721 7.45434837,15.4404721 6.36308098,15.2023774 C6.28371593,15.182536 6.21923226,15.1378933 6.16962906,15.0684492 C6.12002585,14.999005 6.09522447,14.9246004 6.09522447,14.8452354 L6.09522447,13.3869055 C5.42062275,13.1488109 4.81546562,12.8015893 4.27975261,12.3452414 L3.02975559,13.0892872 C2.95039055,13.1289695 2.87102596,13.1388904 2.79166092,13.119049 C2.71229588,13.0992077 2.64285175,13.0595254 2.58332808,13.0000017 C1.82936178,12.1865117 1.28372785,11.253974 0.946427223,10.2023893 C0.926585849,10.1230243 0.931546306,10.0436597 0.96130814,9.96429465 C0.991069974,9.88492961 1.04563318,9.82540595 1.12499823,9.78572365 L2.37499525,9.04167781 C2.25594791,8.34723517 2.25594791,7.65279208 2.37499525,6.95834944 L1.12499823,6.2143036 C1.04563318,6.1746213 0.991069974,6.11509763 0.96130814,6.03573259 C0.931546306,5.95636755 0.926585849,5.87700296 0.946427223,5.79763792 C1.28372785,4.74605328 1.82936178,3.81351552 2.58332808,3.00002554 C2.64285175,2.94050188 2.71229588,2.90081958 2.79166092,2.88097821 C2.87102596,2.86113684 2.95039055,2.87105775 3.02975559,2.91074004 L4.27975261,3.65478589 C4.81546562,3.19843792 5.42062275,2.85121638 6.09522447,2.61312171 L6.09522447,1.15479185 C6.09522447,1.07542681 6.12002585,1.00102222 6.16962906,0.931578095 C6.21923226,0.862133968 6.28371593,0.817491217 6.36308098,0.797649843 C7.45434837,0.559555173 8.5456153,0.559555173 9.63688269,0.797649843 C9.71624774,0.817491217 9.78073141,0.862133968 9.83033461,0.931578095 C9.87993782,1.00102222 9.9047392,1.07542681 9.9047392,1.15479185 L9.9047392,2.61312171 C10.5793409,2.85121638 11.1844981,3.19843792 11.7202111,3.65478589 L12.9702081,2.91074004 C13.0495731,2.87105775 13.1289377,2.86113684 13.2083028,2.88097821 C13.2876678,2.90081958 13.3571119,2.94050188 13.4166356,3.00002554 C14.1706019,3.81351552 14.7162358,4.74605328 15.0535364,5.79763792 C15.0733778,5.87700296 15.0684174,5.95636755 15.0386555,6.03573259 C15.0088937,6.11509763 14.9543305,6.1746213 14.8749654,6.2143036 L13.6249684,6.95834944 C13.7440158,7.65279208 13.7440158,8.34723517 13.6249684,9.04167781 Z M10.3809285,8.00001362 C10.3809285,7.34525328 10.1477943,6.78473889 9.68152544,6.31847001 C9.21525656,5.85220113 8.65474218,5.61906692 7.99998183,5.61906692 C7.34522149,5.61906692 6.78470711,5.85220113 6.31843822,6.31847001 C5.85216934,6.78473889 5.61903513,7.34525328 5.61903513,8.00001362 C5.61903513,8.65477397 5.85216934,9.21528835 6.31843822,9.68155723 C6.78470711,10.1478261 7.34522149,10.3809603 7.99998183,10.3809603 C8.65474218,10.3809603 9.21525656,10.1478261 9.68152544,9.68155723 C10.1477943,9.21528835 10.3809285,8.65477397 10.3809285,8.00001362 Z" id=""></path>
            </g>
        </g>
    </g>
</svg>