<?xml version="1.0" encoding="UTF-8"?>
<svg width="15px" height="15px" viewBox="0 0 15 15" version="1.1" xmlns="http://www.w3.org/2000/svg" xmlns:xlink="http://www.w3.org/1999/xlink">
    <!-- Generator: Sketch 53.2 (72643) - https://sketchapp.com -->
    <title>g</title>
    <desc>Created with Sketch.</desc>
    <g id="Symbols" stroke="none" stroke-width="1" fill="none" fill-rule="evenodd">
        <path d="M5.25780168,11.6054721 C5.25780168,11.6783887 5.20767173,11.7194042 5.10741141,11.7285187 C5.00715109,11.7376331 4.95702115,11.7057324 4.95702115,11.6328158 C4.95702115,11.5598991 5.00259409,11.523441 5.09373957,11.523441 C5.14842694,11.523441 5.18944247,11.5325554 5.21678615,11.5507847 C5.24412984,11.569014 5.25780168,11.5872428 5.25780168,11.6054721 Z M4.41014745,11.4960973 C4.42837671,11.4231807 4.48306408,11.4003944 4.57420956,11.4277381 C4.66535503,11.4550818 4.70637056,11.4915399 4.69725614,11.5371129 C4.68814172,11.5826858 4.66535503,11.6145865 4.62889693,11.6328158 C4.59243882,11.651045 4.5559803,11.651045 4.51952219,11.6328158 C4.48306408,11.6145865 4.45116298,11.5918002 4.42381929,11.5644565 C4.39647561,11.5371129 4.39191819,11.5143266 4.41014745,11.4960973 Z M5.61326958,11.44141 C5.70441506,11.44141 5.75454542,11.4687537 5.76365985,11.523441 C5.77277427,11.5781284 5.73175874,11.6237013 5.64061327,11.6601594 C5.60415516,11.6601594 5.57225405,11.655602 5.54491037,11.6464876 C5.51756668,11.6373732 5.49933742,11.6054721 5.490223,11.5507847 C5.48110858,11.4960973 5.5221241,11.4596392 5.61326958,11.44141 Z M7.41795278,0.968778685 C8.65753302,0.968778685 9.80596778,1.2604448 10.8632571,1.8437766 C11.9205463,2.4271084 12.7499713,3.22007526 13.3515324,4.22267718 C13.9713227,5.2617372 14.2812177,6.40105754 14.2812177,7.64063778 C14.2812177,9.15365486 13.8573905,10.5071673 13.0097363,11.701175 C12.1620821,12.8951827 11.0546629,13.7200502 9.68747862,14.1757784 C9.54164577,14.2122366 9.42771361,14.1940077 9.34568256,14.1210911 C9.2636515,14.0481744 9.22263598,13.957029 9.22263598,13.8476542 L9.22263598,11.5507847 C9.22263598,10.9674529 9.06768829,10.5481828 8.75779333,10.2929752 C9.43227103,10.2200586 9.93357178,10.1289131 10.261696,10.0195384 C10.7721116,9.83724698 11.1640376,9.56381014 11.4374744,9.19922781 C11.7473694,8.72527075 11.9023171,8.07813673 11.9023171,7.25782619 C11.9023171,6.91147271 11.8385153,6.61069218 11.7109113,6.35548459 C11.6197658,6.17319322 11.4465889,5.94532932 11.1913813,5.67189247 C11.2642979,5.4896011 11.3098704,5.27085162 11.3280997,5.01564404 C11.346329,4.61460319 11.2825268,4.21356275 11.1366939,3.8125219 C10.9544025,3.75783454 10.699195,3.79429264 10.3710707,3.92189664 C10.1523213,4.01304212 9.89711367,4.14064612 9.60544756,4.30470823 L9.24997966,4.55080139 C8.6848767,4.38673929 8.10610232,4.30470823 7.51365567,4.30470823 C6.92120903,4.30470823 6.35154907,4.38673929 5.80467537,4.55080139 L5.44920747,4.30470823 C5.15754136,4.14064612 4.89321935,4.01304212 4.65624061,3.92189664 C4.32811639,3.79429264 4.08202323,3.75783454 3.91796112,3.8125219 C3.75389901,4.21356275 3.69009722,4.61460319 3.72655533,5.01564404 C3.72655533,5.27085162 3.76301344,5.48048668 3.83593007,5.64454879 C3.61718059,5.91798563 3.4576759,6.16863622 3.35741558,6.39650012 C3.25715527,6.62436402 3.20702532,6.91147271 3.20702532,7.25782619 C3.20702532,8.07813673 3.35285816,8.71615591 3.64452427,9.17188413 C3.89973186,9.55469571 4.28254345,9.83724698 4.79295904,10.0195384 C5.12108325,10.1289131 5.61326958,10.2200586 6.26951802,10.2929752 C6.03253928,10.5117247 5.88670643,10.8216196 5.83201906,11.2226605 C5.5221241,11.3684933 5.22134357,11.4231807 4.92967746,11.3867226 C4.4557204,11.3502645 4.09113765,11.1041713 3.83593007,10.6484431 C3.72655533,10.4479229 3.58072248,10.2838608 3.39843111,10.1562568 C3.27082711,10.0833401 3.13410869,10.0195384 2.98827584,9.96485099 L2.79687005,9.9375073 C2.59634983,9.9375073 2.49153209,9.96940841 2.48241767,10.0332102 C2.47330325,10.097012 2.51431877,10.1653712 2.60546425,10.2382878 L2.74218268,10.3476626 C2.86978668,10.4205792 2.99739026,10.5390684 3.12499426,10.7031305 C3.234369,10.8307345 3.32551448,10.9765673 3.39843111,11.1406294 L3.50780585,11.3593789 C3.59895133,11.6328158 3.77212828,11.8424508 4.02733586,11.9882837 C4.24608534,12.1158877 4.51040777,12.1979187 4.82030272,12.2343768 C5.0390522,12.2526061 5.2669161,12.2434912 5.50389484,12.2070331 L5.80467537,12.1796895 L5.83201906,13.8476542 C5.83201906,13.957029 5.79100353,14.0481744 5.70897248,14.1210911 C5.62694142,14.1940077 5.51300926,14.2122366 5.36717642,14.1757784 C3.98176291,13.7200502 2.86067184,12.8951827 2.00390319,11.701175 C1.14713453,10.5071673 0.71875,9.15365486 0.71875,7.64063778 C0.71875,6.40105754 1.01041611,5.27085162 1.59374791,4.25002086 C2.17707972,3.2291901 2.97916142,2.4271084 3.99999218,1.8437766 C5.02082294,1.2604448 6.16014328,0.968778685 7.41795278,0.968778685 Z M3.37108743,10.4023499 C3.40754553,10.3658918 3.45311848,10.3750063 3.50780585,10.4296936 C3.56249322,10.484381 3.57160764,10.5299539 3.53514954,10.5664121 C3.49869143,10.6028702 3.45311848,10.5937557 3.39843111,10.5390684 C3.34374374,10.484381 3.33462932,10.4388081 3.37108743,10.4023499 Z M3.07030689,10.1836005 C3.106765,10.1471424 3.15233795,10.1425849 3.20702532,10.1699286 C3.26171269,10.1972723 3.27994195,10.2337304 3.26171269,10.2793034 C3.24348342,10.3248763 3.2024679,10.3294333 3.13866611,10.2929752 C3.07486431,10.2565171 3.05207763,10.2200586 3.07030689,10.1836005 Z M3.97264849,11.1406294 C3.99087775,11.1224002 4.01822144,11.1178432 4.05467955,11.1269576 C4.09113765,11.136072 4.12303876,11.1543013 4.15038244,11.181645 C4.17772613,11.2089886 4.19595539,11.2408897 4.20506981,11.2773479 C4.21418424,11.313806 4.20962723,11.3411496 4.19139797,11.3593789 C4.1367106,11.4140663 4.07290881,11.4049519 3.99999218,11.3320352 C3.96353407,11.2955771 3.94530481,11.2591186 3.94530481,11.2226605 C3.94530481,11.1862024 3.95441923,11.1588587 3.97264849,11.1406294 Z M3.64452427,10.7578178 C3.68098238,10.7395886 3.71288349,10.7350316 3.74022717,10.744146 C3.76757086,10.7532604 3.79035712,10.7760471 3.80858638,10.8125052 C3.86327375,10.8854218 3.86327375,10.9401092 3.80858638,10.9765673 C3.79035712,10.9947966 3.76757086,10.9947966 3.74022717,10.9765673 C3.71288349,10.9583381 3.68098238,10.9401092 3.64452427,10.92188 C3.60806617,10.8307345 3.60806617,10.7760471 3.64452427,10.7578178 Z" id="g" fill="#7C4DFF" fill-rule="nonzero"></path>
    </g>
</svg>