<?xml version="1.0" encoding="UTF-8"?>
<svg width="20px" height="23px" viewBox="0 0 20 23" version="1.1" xmlns="http://www.w3.org/2000/svg" xmlns:xlink="http://www.w3.org/1999/xlink">
    <!-- Generator: Sketch 52.6 (67491) - http://www.bohemiancoding.com/sketch -->
    <title>lock</title>
    <desc>Created with Sketch.</desc>
    <g id="Notifications-&amp;-Updates-Designs" stroke="none" stroke-width="1" fill="none" fill-rule="evenodd">
        <path d="M17.5780831,10.1562735 C18.164019,10.1562735 18.6620651,10.3613513 19.0722202,10.7715064 C19.4823752,11.1816614 19.6874531,11.6797076 19.6874531,12.2656434 L19.6874531,20.7031233 C19.6874531,21.2890592 19.4823752,21.7871053 19.0722202,22.1972604 C18.6620651,22.6074154 18.164019,22.8124933 17.5780831,22.8124933 L2.10936997,22.8124933 C1.52343409,22.8124933 1.02538796,22.6074154 0.615232908,22.1972604 C0.20507786,21.7871053 0,21.2890592 0,20.7031233 L0,12.2656434 C0,11.6797076 0.20507786,11.1816614 0.615232908,10.7715064 C1.02538796,10.3613513 1.52343409,10.1562735 2.10936997,10.1562735 L3.16405496,10.1562735 L3.16405496,6.99221851 C3.16405496,5.79104973 3.46434699,4.67777068 4.06493171,3.65238273 C4.66551644,2.62699477 5.47850279,1.81400843 6.50389074,1.2134237 C7.5292787,0.612838968 8.64255774,0.312546939 9.84372653,0.312546939 C11.0448953,0.312546939 12.1581744,0.612838968 13.1835623,1.2134237 C14.2089503,1.81400843 15.0219366,2.62699477 15.6225213,3.65238273 C16.2231061,4.67777068 16.5233981,5.79104973 16.5233981,6.99221851 L16.5233981,10.1562735 L17.5780831,10.1562735 Z M13.0077815,10.1562735 L13.0077815,6.99221851 C13.0077815,6.11331436 12.700165,5.36624583 12.0849321,4.75101292 C11.4696992,4.13578001 10.7226307,3.82816356 9.84372653,3.82816356 C8.96482238,3.82816356 8.21775384,4.13578001 7.60252094,4.75101292 C6.98728803,5.36624583 6.67967157,6.11331436 6.67967157,6.99221851 L6.67967157,10.1562735 L13.0077815,10.1562735 Z" id="lock" fill="#5361FD"></path>
    </g>
</svg>