<?xml version="1.0" encoding="UTF-8"?>
<svg width="16px" height="16px" viewBox="0 0 16 16" version="1.1" xmlns="http://www.w3.org/2000/svg" xmlns:xlink="http://www.w3.org/1999/xlink">
    <!-- Generator: Sketch 52.5 (67469) - http://www.bohemiancoding.com/sketch -->
    <title>icon/notification</title>
    <desc>Created with Sketch.</desc>
    <g id="Symbols" stroke="none" stroke-width="1" fill="none" fill-rule="evenodd">
        <g id="nav/Bar-Global-v3" transform="translate(-941.000000, -18.000000)" fill="#5361FD">
            <g id="icon/notification" transform="translate(941.000000, 18.000000)">
                <path d="M16,12.4984582 C16,7.9980759 12.0069432,8.9992024 12.0069432,5.49838425 C12.0069432,5.2093574 11.9788583,4.96157546 11.9276812,4.75035152 C11.6643068,2.98431937 10.4891073,1.56824405 8.9665906,1.13642232 C8.98000897,1.07393003 8.98749829,1.01050035 8.98749829,0.944570982 C8.98749829,0.424635119 8.53751487,0 7.9892341,0 C7.43939305,0 6.98940963,0.425884965 6.98940963,0.944570982 C6.98940963,1.01050035 6.99689895,1.07393003 7.01031732,1.13642232 C5.30243988,1.61948773 4.03237571,3.34302512 3.99586527,5.40808288 C3.99461705,5.43745426 3.99461705,5.46807548 3.99461705,5.49838425 C3.99461705,8.9992024 0,7.9980759 0,12.4984582 C0,13.6883115 2.66214187,14.6856884 6.22518675,14.9369075 C6.5603339,15.5680796 7.22469916,15.9977141 7.9892341,15.9977141 C8.75220876,15.9977141 9.41657403,15.5680796 9.75172118,14.9369075 C13.3160143,14.6856884 15.9769079,13.6883115 15.9769079,12.4984582 C15.9769079,12.4947087 15.9769079,12.4909592 15.9769079,12.4875221 L16,12.4984582 Z M12.8919314,13.3430416 C12.0459501,13.5689512 11.0473739,13.7323685 9.977337,13.8226699 C9.8884013,12.7999836 9.03243422,11.997895 7.9892341,11.997895 C6.9444737,11.997895 6.08881868,12.7999836 5.99988298,13.8226699 C4.92953406,13.7323685 3.93126987,13.5698886 3.08528855,13.3430416 C1.92101106,13.03183 1.36399274,12.6840604 1.16053283,12.4984582 C1.36399274,12.3116063 1.92101106,11.9638367 3.08528855,11.6526251 C4.43960759,11.2914196 6.18025081,11.0923817 7.9892341,11.0923817 C9.79696917,11.0923817 11.5376124,11.2914196 12.8919314,11.6526251 C14.0558969,11.9638367 14.6129152,12.3116063 14.8163751,12.4984582 C14.6129152,12.6840604 14.0558969,13.03183 12.8919314,13.3430416 Z"></path>
            </g>
        </g>
    </g>
</svg>