<?xml version="1.0" encoding="UTF-8"?>
<svg width="28px" height="20px" viewBox="0 0 28 20" version="1.1" xmlns="http://www.w3.org/2000/svg" xmlns:xlink="http://www.w3.org/1999/xlink">
    <!-- Generator: Sketch 52.5 (67469) - http://www.bohemiancoding.com/sketch -->
    <title> copy</title>
    <desc>Created with Sketch.</desc>
    <g id="Symbols" stroke="none" stroke-width="1" fill="none" fill-rule="evenodd">
        <path d="M23.6249443,8.37502295 C22.679634,8.37502295 21.8703914,8.03843543 21.1972157,7.36525973 C20.52404,6.69208403 20.1874525,5.88284139 20.1874525,4.93753114 C20.1874525,3.9922209 20.52404,3.18297825 21.1972157,2.50980256 C21.8703914,1.83662686 22.679634,1.50003934 23.6249443,1.50003934 C24.5702545,1.50003934 25.3794972,1.83662686 26.0526729,2.50980256 C26.7258486,3.18297825 27.0624361,3.9922209 27.0624361,4.93753114 C27.0624361,5.88284139 26.7258486,6.69208403 26.0526729,7.36525973 C25.3794972,8.03843543 24.5702545,8.37502295 23.6249443,8.37502295 Z M23.6249443,3.56253442 C23.2525491,3.56253442 22.9302842,3.69860202 22.6581497,3.97073657 C22.3860152,4.24287112 22.2499475,4.56513598 22.2499475,4.93753114 C22.2499475,5.30992631 22.3860152,5.63219116 22.6581497,5.90432571 C22.9302842,6.17646026 23.2525491,6.31252787 23.6249443,6.31252787 C23.9973394,6.31252787 24.3196043,6.17646026 24.5917388,5.90432571 C24.8638734,5.63219116 24.999941,5.30992631 24.999941,4.93753114 C24.999941,4.56513598 24.8638734,4.24287112 24.5917388,3.97073657 C24.3196043,3.69860202 23.9973394,3.56253442 23.6249443,3.56253442 Z M4.37499017,8.37502295 C3.42967992,8.37502295 2.62043728,8.03843543 1.94726158,7.36525973 C1.27408588,6.69208403 0.937498361,5.88284139 0.937498361,4.93753114 C0.937498361,3.9922209 1.27408588,3.18297825 1.94726158,2.50980256 C2.62043728,1.83662686 3.42967992,1.50003934 4.37499017,1.50003934 C5.32030041,1.50003934 6.12954306,1.83662686 6.80271875,2.50980256 C7.47589445,3.18297825 7.81248197,3.9922209 7.81248197,4.93753114 C7.81248197,5.88284139 7.47589445,6.69208403 6.80271875,7.36525973 C6.12954306,8.03843543 5.32030041,8.37502295 4.37499017,8.37502295 Z M4.37499017,3.56253442 C4.002595,3.56253442 3.68033014,3.69860202 3.4081956,3.97073657 C3.13606105,4.24287112 2.99999344,4.56513598 2.99999344,4.93753114 C2.99999344,5.30992631 3.13606105,5.63219116 3.4081956,5.90432571 C3.68033014,6.17646026 4.002595,6.31252787 4.37499017,6.31252787 C4.74738533,6.31252787 5.06965019,6.17646026 5.34178474,5.90432571 C5.61391928,5.63219116 5.74998689,5.30992631 5.74998689,4.93753114 C5.74998689,4.56513598 5.61391928,4.24287112 5.34178474,3.97073657 C5.06965019,3.69860202 4.74738533,3.56253442 4.37499017,3.56253442 Z M21.3905746,12.6289191 C21.9634897,13.459646 22.2499475,14.3763109 22.2499475,15.3789125 L22.2499475,17.3125016 C22.2499475,17.8854167 22.049427,18.3723952 21.6483865,18.7734357 C21.247346,19.1744761 20.7603675,19.3749967 20.1874525,19.3749967 L7.81248197,19.3749967 C7.23956689,19.3749967 6.75258844,19.1744761 6.35154795,18.7734357 C5.95050746,18.3723952 5.74998689,17.8854167 5.74998689,17.3125016 L5.74998689,15.3789125 C5.74998689,14.3763109 6.03644476,13.452485 6.60935984,12.6074347 C7.18227492,11.7623844 7.9771949,11.1751467 8.99411978,10.8457202 C10.0110447,10.5162937 11.0351305,10.5091327 12.0663781,10.8242359 C12.6965851,11.0247564 13.3339532,11.1250164 13.9784829,11.1250164 C14.6230126,11.1250164 15.274704,11.0247564 15.9335564,10.8242359 C16.9648039,10.5091327 17.9888898,10.5162937 19.0058147,10.8457202 C20.0227395,11.1751467 20.8176595,11.7695461 21.3905746,12.6289191 Z M20.1874525,17.3125016 L20.1874525,15.3789125 C20.1874525,14.6054768 19.9153179,13.9394628 19.3710482,13.3808704 C18.8267784,12.822278 18.167926,12.5286591 17.3944904,12.5000131 C16.2773055,12.9583456 15.145798,13.1875115 13.9999672,13.1875115 C12.8541364,13.1875115 11.7226289,12.9583456 10.6054441,12.5000131 C9.8320084,12.5286591 9.17315603,12.822278 8.62888627,13.3808704 C8.08461652,13.9394628 7.81248197,14.6054768 7.81248197,15.3789125 L7.81248197,17.3125016 L20.1874525,17.3125016 Z M24.140568,9.75001967 C25.1431696,9.75001967 25.9953815,10.1009305 26.6972026,10.8027515 C27.3990236,11.5045726 27.7499344,12.3567845 27.7499344,13.3593861 C27.7499344,13.6458439 27.6496745,13.8893325 27.4491539,14.0898531 C27.2486333,14.2903736 27.0051448,14.3906336 26.7186869,14.3906336 C26.432229,14.3906336 26.1887405,14.2903736 25.9882199,14.0898531 C25.7876993,13.8893325 25.6874394,13.6458439 25.6874394,13.3593861 C25.6874394,12.9296996 25.5370491,12.5644661 25.2362686,12.2636856 C24.935488,11.962905 24.5702545,11.8125148 24.140568,11.8125148 L23.1093205,11.8125148 C22.9660919,11.8125148 22.7942173,11.8411607 22.5936967,11.898452 C22.1926562,11.325537 21.6913551,10.8099132 21.0897941,10.3515807 C21.6913551,9.95054024 22.3645308,9.75001967 23.1093205,9.75001967 L24.140568,9.75001967 Z M13.9999672,9.75001967 C13.1405943,9.75001967 12.3385126,9.53517643 11.593723,9.10548996 C10.8489333,8.67580348 10.2616949,8.08856508 9.8320084,7.34377541 C9.40232193,6.59898573 9.18747869,5.79690409 9.18747869,4.93753114 C9.18747869,4.07815819 9.40232193,3.27607655 9.8320084,2.53128688 C10.2616949,1.78649721 10.8489333,1.19925881 11.593723,0.769572331 C12.3385126,0.339885855 13.1405943,0.125042617 13.9999672,0.125042617 C14.8593402,0.125042617 15.6614218,0.339885855 16.4062115,0.769572331 C17.1510012,1.19925881 17.7382396,1.78649721 18.167926,2.53128688 C18.5976125,3.27607655 18.8124557,4.07815819 18.8124557,4.93753114 C18.8124557,5.79690409 18.5976125,6.59898573 18.167926,7.34377541 C17.7382396,8.08856508 17.1510012,8.67580348 16.4062115,9.10548996 C15.6614218,9.53517643 14.8593402,9.75001967 13.9999672,9.75001967 Z M13.9999672,2.1875377 C13.2551775,2.1875377 12.6106478,2.45967225 12.0663781,3.003942 C11.5221083,3.54821176 11.2499738,4.19274147 11.2499738,4.93753114 C11.2499738,5.68232082 11.5221083,6.32685053 12.0663781,6.87112028 C12.6106478,7.41539004 13.2551775,7.68752459 13.9999672,7.68752459 C14.7447569,7.68752459 15.3892866,7.41539004 15.9335564,6.87112028 C16.4778261,6.32685053 16.7499607,5.68232082 16.7499607,4.93753114 C16.7499607,4.19274147 16.4778261,3.54821176 15.9335564,3.003942 C15.3892866,2.45967225 14.7447569,2.1875377 13.9999672,2.1875377 Z M6.91014037,10.3515807 C6.30857931,10.8099132 5.8072782,11.3398596 5.40623771,11.9414207 C5.23436312,11.8554834 5.06248853,11.8125148 4.89061394,11.8125148 L3.85936639,11.8125148 C3.42967992,11.8125148 3.06444641,11.962905 2.76366588,12.2636856 C2.46288535,12.5644661 2.31249508,12.9296996 2.31249508,13.3593861 C2.31249508,13.6458439 2.21223512,13.8893325 2.01171455,14.0898531 C1.81119398,14.2903736 1.56770541,14.3906336 1.28124754,14.3906336 C0.994789672,14.3906336 0.751301107,14.2903736 0.550780533,14.0898531 C0.350259959,13.8893325 0.25,13.6458439 0.25,13.3593861 C0.25,12.3567845 0.60091084,11.5045726 1.30273187,10.8027515 C2.00455289,10.1009305 2.85676484,9.75001967 3.85936639,9.75001967 L4.89061394,9.75001967 C5.63540361,9.75001967 6.30857931,9.95054024 6.91014037,10.3515807 Z" id="-copy" fill="#5361FD"></path>
    </g>
</svg>