<?xml version="1.0" encoding="UTF-8"?>
<svg width="19px" height="19px" viewBox="0 0 19 19" version="1.1" xmlns="http://www.w3.org/2000/svg" xmlns:xlink="http://www.w3.org/1999/xlink">
    <!-- Generator: Sketch 52.5 (67469) - http://www.bohemiancoding.com/sketch -->
    <title>search</title>
    <desc>Created with Sketch.</desc>
    <g id="Symbols" stroke="none" stroke-width="1" fill="none" fill-rule="evenodd">
        <path d="M18.2819886,16.7382795 C18.3523009,16.8085918 18.3874571,16.9023418 18.3874571,17.0195288 C18.3874571,17.1367159 18.3523009,17.2421844 18.2819886,17.3359343 L17.4733968,18.10937 C17.3796468,18.2031199 17.2741783,18.2499946 17.1569913,18.2499946 C17.0398042,18.2499946 16.9460543,18.2031199 16.8757419,18.10937 L12.5866897,13.8554739 C12.5163773,13.7617239 12.4812212,13.6679745 12.4812212,13.5742245 L12.4812212,13.0820382 C11.8249726,13.6445369 11.0866931,14.0839889 10.2663827,14.4003944 C9.44607233,14.7167999 8.59060526,14.8750027 7.69998257,14.8750027 C6.36404825,14.8750027 5.13944197,14.5468786 4.0261632,13.89063 C2.91288443,13.2343814 2.02812127,12.3496183 1.37187265,11.2363395 C0.715624039,10.1230607 0.3875,8.89845443 0.3875,7.56252012 C0.3875,6.2265858 0.715624039,5.00197953 1.37187265,3.88870075 C2.02812127,2.77542198 2.91288443,1.89065882 4.0261632,1.2344102 C5.13944197,0.57816159 6.36404825,0.250037551 7.69998257,0.250037551 C9.03591688,0.250037551 10.2605232,0.57816159 11.3738019,1.2344102 C12.4870807,1.89065882 13.3718439,2.77542198 14.0280925,3.88870075 C14.6843411,5.00197953 15.0124651,6.2265858 15.0124651,7.56252012 C15.0124651,8.45314281 14.8542624,9.30860988 14.5378569,10.1289202 C14.2214514,10.9492306 13.7819993,11.6875101 13.2195007,12.3437587 L13.711687,12.3437587 C13.828874,12.3437587 13.922624,12.3789149 13.9929363,12.4492272 L18.2819886,16.7382795 Z M7.69998257,13.1875067 C8.70779284,13.1875067 9.64529025,12.935554 10.5124759,12.4316491 C11.3796615,11.9277443 12.0652067,11.242199 12.5691116,10.3750134 C13.0730165,9.5078278 13.3249692,8.57033039 13.3249692,7.56252012 C13.3249692,6.55470984 13.0730165,5.61721243 12.5691116,4.75002682 C12.0652067,3.88284121 11.3796615,3.19729597 10.5124759,2.6933911 C9.64529025,2.18948623 8.70779284,1.93753353 7.69998257,1.93753353 C6.69217229,1.93753353 5.75467488,2.18948623 4.88748927,2.6933911 C4.02030366,3.19729597 3.33475842,3.88284121 2.83085355,4.75002682 C2.32694868,5.61721243 2.07499598,6.55470984 2.07499598,7.56252012 C2.07499598,8.57033039 2.32694868,9.5078278 2.83085355,10.3750134 C3.33475842,11.242199 4.02030366,11.9277443 4.88748927,12.4316491 C5.75467488,12.935554 6.69217229,13.1875067 7.69998257,13.1875067 Z" id="search" fill="#354866"></path>
    </g>
</svg>