<?xml version="1.0" encoding="UTF-8"?>
<svg width="5px" height="15px" viewBox="0 0 5 15" version="1.1" xmlns="http://www.w3.org/2000/svg" xmlns:xlink="http://www.w3.org/1999/xlink">
    <!-- Generator: Sketch 52.5 (67469) - http://www.bohemiancoding.com/sketch -->
    <title>vert-elipses</title>
    <desc>Created with Sketch.</desc>
    <g id="Symbols" stroke="none" stroke-width="1" fill="none" fill-rule="evenodd">
        <path d="M2.49999464,5.56252012 C2.96874334,5.56252012 3.36718025,5.7265824 3.69530429,6.05470644 C4.02342832,6.38283048 4.18749061,6.78126739 4.18749061,7.25001609 C4.18749061,7.7187648 4.02342832,8.1172017 3.69530429,8.44532574 C3.36718025,8.77344978 2.96874334,8.93751207 2.49999464,8.93751207 C2.03124593,8.93751207 1.63280902,8.77344978 1.30468499,8.44532574 C0.976560947,8.1172017 0.812498659,7.7187648 0.812498659,7.25001609 C0.812498659,6.78126739 0.976560947,6.38283048 1.30468499,6.05470644 C1.63280902,5.7265824 2.03124593,5.56252012 2.49999464,5.56252012 Z M0.812498659,1.90627883 C0.812498659,1.43753013 0.976560947,1.03909322 1.30468499,0.710969184 C1.63280902,0.382845145 2.03124593,0.218782857 2.49999464,0.218782857 C2.96874334,0.218782857 3.36718025,0.382845145 3.69530429,0.710969184 C4.02342832,1.03909322 4.18749061,1.43753013 4.18749061,1.90627883 C4.18749061,2.37502754 4.02342832,2.77346445 3.69530429,3.10158848 C3.36718025,3.42971252 2.96874334,3.59377481 2.49999464,3.59377481 C2.03124593,3.59377481 1.63280902,3.42971252 1.30468499,3.10158848 C0.976560947,2.77346445 0.812498659,2.37502754 0.812498659,1.90627883 Z M0.812498659,12.5937534 C0.812498659,12.1250046 0.976560947,11.7265677 1.30468499,11.3984437 C1.63280902,11.0703197 2.03124593,10.9062574 2.49999464,10.9062574 C2.96874334,10.9062574 3.36718025,11.0703197 3.69530429,11.3984437 C4.02342832,11.7265677 4.18749061,12.1250046 4.18749061,12.5937534 C4.18749061,13.0625021 4.02342832,13.460939 3.69530429,13.789063 C3.36718025,14.117187 2.96874334,14.2812493 2.49999464,14.2812493 C2.03124593,14.2812493 1.63280902,14.117187 1.30468499,13.789063 C0.976560947,13.460939 0.812498659,13.0625021 0.812498659,12.5937534 Z" id="vert-elipses" fill="#354866"></path>
    </g>
</svg>