<?xml version="1.0" encoding="UTF-8"?>
<svg width="21px" height="21px" viewBox="0 0 21 21" version="1.1" xmlns="http://www.w3.org/2000/svg" xmlns:xlink="http://www.w3.org/1999/xlink">
    <!-- Generator: Sketch 52.3 (67297) - http://www.bohemiancoding.com/sketch -->
    <title>icon/Address Book</title>
    <desc>Created with Sketch.</desc>
    <g id="icon/Address-Book" stroke="none" stroke-width="1" fill="none" fill-rule="evenodd">
        <path d="M18.7812094,6.75002682 L17.9999613,6.75002682 L17.9999613,9.25002086 L18.7812094,9.25002086 C18.9114172,9.25002086 19.0220944,9.29559387 19.1132399,9.38673929 C19.2043853,9.4778847 19.2499583,9.58856192 19.2499583,9.71876974 L19.2499583,11.281266 C19.2499583,11.4114738 19.2043853,11.5221511 19.1132399,11.6132965 C19.0220944,11.7044419 18.9114172,11.7500149 18.7812094,11.7500149 L17.9999613,11.7500149 L17.9999613,14.2500089 L18.7812094,14.2500089 C18.9114172,14.2500089 19.0220944,14.2955819 19.1132399,14.3867274 C19.2043853,14.4778728 19.2499583,14.58855 19.2499583,14.7187578 L19.2499583,16.2812541 C19.2499583,16.4114619 19.2043853,16.5221391 19.1132399,16.6132846 C19.0220944,16.70443 18.9114172,16.750003 18.7812094,16.750003 L17.9999613,16.750003 L17.9999613,18.6249985 C17.9999613,19.1458304 17.8176698,19.5885381 17.4530876,19.9531203 C17.0885053,20.3177026 16.6457976,20.499994 16.1249657,20.499994 L3.62499553,20.499994 C3.10416364,20.499994 2.66145596,20.3177026 2.2968737,19.9531203 C1.93229143,19.5885381 1.75,19.1458304 1.75,18.6249985 L1.75,2.37503725 C1.75,1.85420536 1.93229143,1.41149768 2.2968737,1.04691542 C2.66145596,0.682333154 3.10416364,0.500041723 3.62499553,0.500041723 L16.1249657,0.500041723 C16.6457976,0.500041723 17.0885053,0.682333154 17.4530876,1.04691542 C17.8176698,1.41149768 17.9999613,1.85420536 17.9999613,2.37503725 L17.9999613,4.25003278 L18.7812094,4.25003278 C18.9114172,4.25003278 19.0220944,4.29560579 19.1132399,4.38675121 C19.2043853,4.47789662 19.2499583,4.58857384 19.2499583,4.71878166 L19.2499583,6.28127794 C19.2499583,6.41148576 19.2043853,6.52216298 19.1132399,6.6133084 C19.0220944,6.70445382 18.9114172,6.75002682 18.7812094,6.75002682 Z M9.87498063,5.5000298 C9.19789911,5.5000298 8.61196301,5.74742485 8.11717232,6.24221553 C7.62238163,6.73700622 7.37498659,7.32294232 7.37498659,8.00002384 C7.37498659,8.67710536 7.62238163,9.26304147 8.11717232,9.75783215 C8.61196301,10.2526228 9.19789911,10.5000179 9.87498063,10.5000179 C10.5520621,10.5000179 11.1379983,10.2526228 11.6327889,9.75783215 C12.1275796,9.26304147 12.3749747,8.67710536 12.3749747,8.00002384 C12.3749747,7.32294232 12.1275796,6.73700622 11.6327889,6.24221553 C11.1379983,5.74742485 10.5520621,5.5000298 9.87498063,5.5000298 Z M14.2499702,14.7578202 L14.2499702,14.0156345 C14.2499702,13.390636 13.9960646,12.8567829 13.4882533,12.4140758 C12.980442,11.9713687 12.3619541,11.7500149 11.6327889,11.7500149 L11.4374769,11.7500149 C10.9426862,11.9583475 10.4218543,12.0625142 9.87498063,12.0625142 C9.32810693,12.0625142 8.80727504,11.9583475 8.31248435,11.7500149 L8.11717232,11.7500149 C7.38800719,11.7500149 6.76951928,11.9713687 6.26170799,12.4140758 C5.7538967,12.8567829 5.49999106,13.390636 5.49999106,14.0156345 L5.49999106,14.7578202 C5.49999106,14.9661529 5.58462647,15.1419337 5.7538967,15.2851627 C5.92316694,15.4283917 6.12498957,15.500006 6.35936401,15.500006 L13.3905972,15.500006 C13.6249717,15.500006 13.8267943,15.4283917 13.9960646,15.2851627 C14.1653348,15.1419337 14.2499702,14.9661529 14.2499702,14.7578202 Z" id="" fill="#666666"></path>
    </g>
</svg>