<?xml version="1.0" encoding="UTF-8"?>
<svg width="24px" height="24px" viewBox="0 0 24 24" version="1.1" xmlns="http://www.w3.org/2000/svg" xmlns:xlink="http://www.w3.org/1999/xlink">
    <!-- Generator: Sketch 52.3 (67297) - http://www.bohemiancoding.com/sketch -->
    <title>icon/Back Arrow White</title>
    <desc>Created with Sketch.</desc>
    <g id="icon/Back-Arrow-White" stroke="none" stroke-width="1" fill="none" fill-rule="evenodd">
        <path d="M12.2343536,21.0156226 C12.130187,21.0937474 12.0129997,21.1328098 11.8827919,21.1328098 C11.7525841,21.1328098 11.6484175,21.0937474 11.5702927,21.0156226 L3.40624963,12.8125171 C3.30208301,12.7343923 3.25,12.6302257 3.25,12.5000179 C3.25,12.3698101 3.30208301,12.2656434 3.40624963,12.1875186 L11.5702927,3.98441318 C11.6484175,3.90628837 11.7525841,3.86722596 11.8827919,3.86722596 C12.0129997,3.86722596 12.130187,3.90628837 12.2343536,3.98441318 L13.0156017,4.76566132 C13.0937265,4.84378614 13.1327889,4.94795275 13.1327889,5.07816058 C13.1327889,5.2083684 13.0937265,5.32555562 13.0156017,5.42972224 L6.96092865,11.4843953 L20.2812094,11.4843953 C20.4114172,11.4843953 20.5220944,11.5299683 20.6132399,11.6211137 C20.7043853,11.7122591 20.7499583,11.8229364 20.7499583,11.9531442 L20.7499583,13.0468916 C20.7499583,13.1770994 20.7043853,13.2877766 20.6132399,13.378922 C20.5220944,13.4700675 20.4114172,13.5156405 20.2812094,13.5156405 L6.96092865,13.5156405 L13.0156017,19.5703135 C13.0937265,19.6744801 13.1327889,19.7916674 13.1327889,19.9218752 C13.1327889,20.052083 13.0937265,20.1562496 13.0156017,20.2343744 L12.2343536,21.0156226 Z" id="ï " fill="#FFFFFF"></path>
    </g>
</svg>