<?xml version="1.0" encoding="UTF-8"?>
<svg width="24px" height="24px" viewBox="0 0 24 24" version="1.1" xmlns="http://www.w3.org/2000/svg" xmlns:xlink="http://www.w3.org/1999/xlink">
    <!-- Generator: Sketch 52.3 (67297) - http://www.bohemiancoding.com/sketch -->
    <title>icon/Chat</title>
    <desc>Created with Sketch.</desc>
    <g id="icon/Chat" stroke="none" stroke-width="1" fill="none" fill-rule="evenodd">
        <circle id="Oval" fill="#7C55FB" fill-rule="nonzero" cx="12" cy="12" r="12"></circle>
        <path d="M15.3749729,10.3749896 C15.3749729,11.158842 15.1197653,11.8880067 14.6093497,12.5624844 C14.0989341,13.2369621 13.410785,13.7701639 12.5449015,14.1620899 C11.679018,14.5540159 10.7265465,14.7499791 9.68748644,14.7499791 C8.59373905,14.7499791 7.58202271,14.5221152 6.65233743,14.066387 C5.86848499,14.5221152 5.05728928,14.7499791 4.21874948,14.7499791 C4.127604,14.7499791 4.06380179,14.7044062 4.02734368,14.6132607 C3.99088558,14.5221152 4.00911442,14.4400842 4.08203105,14.3671676 C4.15494769,14.2942509 4.26432243,14.1484181 4.41015527,13.9296686 C4.68359212,13.5833151 4.89322718,13.2369621 5.03906002,12.8906086 C4.34635348,12.1432147 4,11.3046749 4,10.3749896 C4,9.59113713 4.25520759,8.86197248 4.76562317,8.18749478 C5.27603876,7.51301709 5.96418789,6.97981523 6.83007138,6.58788922 C7.69595487,6.19596321 8.64842642,6 9.68748644,6 C10.7265465,6 11.679018,6.19596321 12.5449015,6.58788922 C13.410785,6.97981523 14.0989341,7.51301709 14.6093497,8.18749478 C15.1197653,8.86197248 15.3749729,9.59113713 15.3749729,10.3749896 Z M18.7109024,16.3906002 C18.8567353,16.7369537 19.0663703,17.0924216 19.3398072,17.4570039 C19.48564,17.6575242 19.5950148,17.7942426 19.6679314,17.8671592 C19.740848,17.9400758 19.7590769,18.0221069 19.7226188,18.1132524 C19.6861607,18.2043978 19.6223584,18.2499708 19.531213,18.2499708 C18.6926732,18.2499708 17.8814775,18.0221069 17.097625,17.5663787 C16.1679397,18.0221069 15.1562234,18.2499708 14.062476,18.2499708 C12.895812,18.2499708 11.8385231,18.0038776 10.8906086,17.5116913 C9.94269403,17.019505 9.24998748,16.372371 8.81248853,15.5702897 C9.14061274,15.6067478 9.43227885,15.6249771 9.68748644,15.6249771 C10.8723793,15.6249771 11.9661267,15.3879983 12.9687286,14.9140412 C13.9713305,14.4400842 14.7688544,13.8020646 15.361301,12.9999833 C15.9537477,12.197902 16.2499708,11.3229041 16.2499708,10.3749896 C16.2499708,10.1744694 16.2408564,9.99217798 16.2226271,9.82811587 C17.2616871,10.1562401 18.1093414,10.6894419 18.7655898,11.4277214 C19.4218382,12.1660009 19.7499624,12.9908689 19.7499624,13.9023249 C19.7499624,14.8137809 19.403609,15.6432063 18.7109024,16.3906002 Z" id="" fill="#FFFFFF"></path>
    </g>
</svg>