<?xml version="1.0" encoding="UTF-8"?>
<svg width="24px" height="24px" viewBox="0 0 24 24" version="1.1" xmlns="http://www.w3.org/2000/svg" xmlns:xlink="http://www.w3.org/1999/xlink">
    <!-- Generator: Sketch 52.3 (67297) - http://www.bohemiancoding.com/sketch -->
    <title>icon/checkbox-filled</title>
    <desc>Created with Sketch.</desc>
    <g id="icon/checkbox-filled" stroke="none" stroke-width="1" fill="none" fill-rule="evenodd">
        <rect id="Rectangle-2" stroke="#C0BEBC" fill="#FFFFFF" fill-rule="nonzero" x="0.5" y="0.5" width="23" height="23" rx="2"></rect>
        <path d="M9.80356032,16.9017863 L5.3303567,12.4553683 C5.20535686,12.3303685 5.14285714,12.1696546 5.14285714,11.9732266 C5.14285714,11.7767986 5.20535686,11.6160847 5.3303567,11.4910849 L6.32142576,10.5268015 C6.4464256,10.3839448 6.60267509,10.3125163 6.79017464,10.3125163 C6.9776742,10.3125163 7.14285251,10.3839448 7.28570918,10.5268015 L10.285702,13.5267943 L16.7142581,7.09823823 C16.8571148,6.95538157 17.0222931,6.88395303 17.2097927,6.88395303 C17.3972922,6.88395303 17.5535417,6.95538157 17.6785415,7.09823823 L18.6696106,8.06252165 C18.7946104,8.18752149 18.8571102,8.34823539 18.8571102,8.54466336 C18.8571102,8.74109132 18.7946104,8.90180523 18.6696106,9.02680506 L10.7678437,16.9017863 C10.6428439,17.044643 10.48213,17.1160715 10.285702,17.1160715 C10.0892741,17.1160715 9.92856015,17.044643 9.80356032,16.9017863 Z" id="" fill="#7C55FB"></path>
    </g>
</svg>