<?xml version="1.0" encoding="UTF-8"?>
<svg width="24px" height="24px" viewBox="0 0 24 24" version="1.1" xmlns="http://www.w3.org/2000/svg" xmlns:xlink="http://www.w3.org/1999/xlink">
    <!-- Generator: Sketch 52.3 (67297) - http://www.bohemiancoding.com/sketch -->
    <title>icon/clipped inactive</title>
    <desc>Created with Sketch.</desc>
    <g id="icon/clipped-inactive" stroke="none" stroke-width="1" fill="none" fill-rule="evenodd">
        <g id="Group-2">
            <circle id="Oval" stroke="#89969F" stroke-width="1.5" fill-rule="nonzero" cx="12" cy="12" r="12"></circle>
            <g id="icon/Clipped-Inactive" transform="translate(4.000000, 4.000000)" fill="#89969F">
                <path d="M10.2916493,7.25001291 C10.3437325,7.25001291 10.3914753,7.27171412 10.4348781,7.31511693 C10.4782809,7.35851973 10.4999821,7.40626254 10.4999821,7.45834575 L10.4999821,7.87501142 C10.4999821,7.92709463 10.4782809,7.97483744 10.4348781,8.01824025 C10.3914753,8.06164306 10.3437325,8.08334426 10.2916493,8.08334426 L7.37498957,8.08334426 C7.32290636,8.08334426 7.27516355,8.06164306 7.23176074,8.01824025 C7.18835794,7.97483744 7.16665673,7.92709463 7.16665673,7.87501142 L7.16665673,7.45834575 C7.16665673,7.40626254 7.18835794,7.35851973 7.23176074,7.31511693 C7.27516355,7.27171412 7.32290636,7.25001291 7.37498957,7.25001291 L10.2916493,7.25001291 Z M10.2916493,9.75000695 C10.3437325,9.75000695 10.3914753,9.77170816 10.4348781,9.81511097 C10.4782809,9.85851377 10.4999821,9.90625658 10.4999821,9.95833979 L10.4999821,10.3750055 C10.4999821,10.4270887 10.4782809,10.4748315 10.4348781,10.5182343 C10.3914753,10.5616371 10.3437325,10.5833383 10.2916493,10.5833383 L7.37498957,10.5833383 C7.32290636,10.5833383 7.27516355,10.5616371 7.23176074,10.5182343 C7.18835794,10.4748315 7.16665673,10.4270887 7.16665673,10.3750055 L7.16665673,9.95833979 C7.16665673,9.90625658 7.18835794,9.85851377 7.23176074,9.81511097 C7.27516355,9.77170816 7.32290636,9.75000695 7.37498957,9.75000695 L10.2916493,9.75000695 Z M5.91665971,7.04168008 C6.09027054,7.04168008 6.23783937,7.10244369 6.35936699,7.22397131 C6.48089461,7.34549893 6.54165822,7.49306776 6.54165822,7.66667859 C6.54165822,7.84028942 6.48089461,7.98785824 6.35936699,8.10938587 C6.23783937,8.23091349 6.09027054,8.2916771 5.91665971,8.2916771 C5.74304888,8.2916771 5.59548006,8.23091349 5.47395243,8.10938587 C5.35242481,7.98785824 5.2916612,7.84028942 5.2916612,7.66667859 C5.2916612,7.49306776 5.35242481,7.34549893 5.47395243,7.22397131 C5.59548006,7.10244369 5.74304888,7.04168008 5.91665971,7.04168008 Z M5.91665971,9.54167412 C6.09027054,9.54167412 6.23783937,9.60243773 6.35936699,9.72396535 C6.48089461,9.84549297 6.54165822,9.9930618 6.54165822,10.1666726 C6.54165822,10.3402835 6.48089461,10.4878523 6.35936699,10.6093799 C6.23783937,10.7309075 6.09027054,10.7916711 5.91665971,10.7916711 C5.74304888,10.7916711 5.59548006,10.7309075 5.47395243,10.6093799 C5.35242481,10.4878523 5.2916612,10.3402835 5.2916612,10.1666726 C5.2916612,9.9930618 5.35242481,9.84549297 5.47395243,9.72396535 C5.59548006,9.60243773 5.74304888,9.54167412 5.91665971,9.54167412 Z M11.7499791,2.66669051 C12.0972004,2.66669051 12.3923389,2.78821813 12.6353937,3.03127297 C12.8784485,3.27432782 12.9999762,3.56946627 12.9999762,3.91668753 L12.9999762,13.0833323 C12.9999762,13.4305536 12.8784485,13.7256921 12.6353937,13.9687469 C12.3923389,14.2118017 12.0972004,14.3333294 11.7499791,14.3333294 L4.24999702,14.3333294 C3.90277576,14.3333294 3.60763731,14.2118017 3.36458246,13.9687469 C3.12152762,13.7256921 3,13.4305536 3,13.0833323 L3,3.91668753 C3,3.56946627 3.12152762,3.27432782 3.36458246,3.03127297 C3.60763731,2.78821813 3.90277576,2.66669051 4.24999702,2.66669051 L6.33332539,2.66669051 C6.33332539,2.21530283 6.49825542,1.82467876 6.82811587,1.4948183 C7.15797633,1.16495785 7.5486004,1.00002782 7.99998808,1.00002782 C8.45137576,1.00002782 8.84199983,1.16495785 9.17186029,1.4948183 C9.50172074,1.82467876 9.66665077,2.21530283 9.66665077,2.66669051 L11.7499791,2.66669051 Z M7.99998808,2.25002484 C7.87846046,2.25002484 7.77863444,2.28908724 7.70050963,2.36721206 C7.62238481,2.44533687 7.58332241,2.54516289 7.58332241,2.66669051 C7.58332241,2.78821813 7.62238481,2.88804415 7.70050963,2.96616896 C7.77863444,3.04429377 7.87846046,3.08335618 7.99998808,3.08335618 C8.1215157,3.08335618 8.22134172,3.04429377 8.29946653,2.96616896 C8.37759135,2.88804415 8.41665375,2.78821813 8.41665375,2.66669051 C8.41665375,2.54516289 8.37759135,2.44533687 8.29946653,2.36721206 C8.22134172,2.28908724 8.1215157,2.25002484 7.99998808,2.25002484 Z M11.7499791,12.8749995 L11.7499791,4.12502036 C11.7499791,4.07293716 11.7282779,4.02519435 11.6848751,3.98179154 C11.6414723,3.93838873 11.5937295,3.91668753 11.5416463,3.91668753 L10.4999821,3.91668753 L10.4999821,4.75001887 C10.4999821,4.8715465 10.4609197,4.97137251 10.3827949,5.04949733 C10.3046701,5.12762214 10.2048441,5.16668455 10.0833164,5.16668455 L5.91665971,5.16668455 C5.79513209,5.16668455 5.69530607,5.12762214 5.61718126,5.04949733 C5.53905645,4.97137251 5.49999404,4.8715465 5.49999404,4.75001887 L5.49999404,3.91668753 L4.45832986,3.91668753 C4.40624665,3.91668753 4.35850384,3.93838873 4.31510103,3.98179154 C4.27169822,4.02519435 4.24999702,4.07293716 4.24999702,4.12502036 L4.24999702,12.8749995 C4.24999702,12.9270827 4.27169822,12.9748255 4.31510103,13.0182283 C4.35850384,13.0616311 4.40624665,13.0833323 4.45832986,13.0833323 L11.5416463,13.0833323 C11.5937295,13.0833323 11.6414723,13.0616311 11.6848751,13.0182283 C11.7282779,12.9748255 11.7499791,12.9270827 11.7499791,12.8749995 Z" id=""></path>
            </g>
        </g>
    </g>
</svg>