<?xml version="1.0" encoding="UTF-8"?>
<svg width="24px" height="24px" viewBox="0 0 24 24" version="1.1" xmlns="http://www.w3.org/2000/svg" xmlns:xlink="http://www.w3.org/1999/xlink">
    <!-- Generator: Sketch 52.3 (67297) - http://www.bohemiancoding.com/sketch -->
    <title>icon/Clipped White Outline Active</title>
    <desc>Created with Sketch.</desc>
    <g id="icon/Clipped-White-Outline-Active" stroke="none" stroke-width="1" fill="none" fill-rule="evenodd">
        <path d="M15.4374739,10.8750194 C15.5155987,10.8750194 15.587213,10.9075712 15.6523172,10.9726754 C15.7174214,11.0377796 15.7499732,11.1093938 15.7499732,11.1875186 L15.7499732,11.8125171 C15.7499732,11.890642 15.7174214,11.9622562 15.6523172,12.0273604 C15.587213,12.0924646 15.5155987,12.1250164 15.4374739,12.1250164 L11.0624844,12.1250164 C10.9843595,12.1250164 10.9127453,12.0924646 10.8476411,12.0273604 C10.7825369,11.9622562 10.7499851,11.890642 10.7499851,11.8125171 L10.7499851,11.1875186 C10.7499851,11.1093938 10.7825369,11.0377796 10.8476411,10.9726754 C10.9127453,10.9075712 10.9843595,10.8750194 11.0624844,10.8750194 L15.4374739,10.8750194 Z M15.4374739,14.6250104 C15.5155987,14.6250104 15.587213,14.6575622 15.6523172,14.7226664 C15.7174214,14.7877707 15.7499732,14.8593849 15.7499732,14.9375097 L15.7499732,15.5625082 C15.7499732,15.640633 15.7174214,15.7122472 15.6523172,15.7773514 C15.587213,15.8424556 15.5155987,15.8750075 15.4374739,15.8750075 L11.0624844,15.8750075 C10.9843595,15.8750075 10.9127453,15.8424556 10.8476411,15.7773514 C10.7825369,15.7122472 10.7499851,15.640633 10.7499851,15.5625082 L10.7499851,14.9375097 C10.7499851,14.8593849 10.7825369,14.7877707 10.8476411,14.7226664 C10.9127453,14.6575622 10.9843595,14.6250104 11.0624844,14.6250104 L15.4374739,14.6250104 Z M8.87498957,10.5625201 C9.13540581,10.5625201 9.35675906,10.6536655 9.53905049,10.835957 C9.72134192,11.0182484 9.81248733,11.2396016 9.81248733,11.5000179 C9.81248733,11.7604341 9.72134192,11.9817874 9.53905049,12.1640788 C9.35675906,12.3463702 9.13540581,12.4375156 8.87498957,12.4375156 C8.61457332,12.4375156 8.39322008,12.3463702 8.21092865,12.1640788 C8.02863722,11.9817874 7.9374918,11.7604341 7.9374918,11.5000179 C7.9374918,11.2396016 8.02863722,11.0182484 8.21092865,10.835957 C8.39322008,10.6536655 8.61457332,10.5625201 8.87498957,10.5625201 Z M8.87498957,14.3125112 C9.13540581,14.3125112 9.35675906,14.4036566 9.53905049,14.585948 C9.72134192,14.7682395 9.81248733,14.9895927 9.81248733,15.2500089 C9.81248733,15.5104252 9.72134192,15.7317784 9.53905049,15.9140699 C9.35675906,16.0963613 9.13540581,16.1875067 8.87498957,16.1875067 C8.61457332,16.1875067 8.39322008,16.0963613 8.21092865,15.9140699 C8.02863722,15.7317784 7.9374918,15.5104252 7.9374918,15.2500089 C7.9374918,14.9895927 8.02863722,14.7682395 8.21092865,14.585948 C8.39322008,14.4036566 8.61457332,14.3125112 8.87498957,14.3125112 Z M17.6249687,4.00003576 C18.1458006,4.00003576 18.5885083,4.18232719 18.9530905,4.54690946 C19.3176728,4.91149172 19.4999642,5.3541994 19.4999642,5.87503129 L19.4999642,19.6249985 C19.4999642,20.1458304 19.3176728,20.5885381 18.9530905,20.9531203 C18.5885083,21.3177026 18.1458006,21.499994 17.6249687,21.499994 L6.37499553,21.499994 C5.85416364,21.499994 5.41145596,21.3177026 5.0468737,20.9531203 C4.68229143,20.5885381 4.5,20.1458304 4.5,19.6249985 L4.5,5.87503129 C4.5,5.3541994 4.68229143,4.91149172 5.0468737,4.54690946 C5.41145596,4.18232719 5.85416364,4.00003576 6.37499553,4.00003576 L9.49998808,4.00003576 C9.49998808,3.32295424 9.74738312,2.73701814 10.2421738,2.24222745 C10.7369645,1.74743677 11.3229006,1.50004172 11.9999821,1.50004172 C12.6770636,1.50004172 13.2629997,1.74743677 13.7577904,2.24222745 C14.2525811,2.73701814 14.4999762,3.32295424 14.4999762,4.00003576 L17.6249687,4.00003576 Z M11.9999821,3.37503725 C11.8176907,3.37503725 11.6679517,3.43363086 11.5507644,3.55081808 C11.4335772,3.6680053 11.3749836,3.81774433 11.3749836,4.00003576 C11.3749836,4.18232719 11.4335772,4.33206622 11.5507644,4.44925344 C11.6679517,4.56644066 11.8176907,4.62503427 11.9999821,4.62503427 C12.1822735,4.62503427 12.3320126,4.56644066 12.4491998,4.44925344 C12.566387,4.33206622 12.6249806,4.18232719 12.6249806,4.00003576 C12.6249806,3.81774433 12.566387,3.6680053 12.4491998,3.55081808 C12.3320126,3.43363086 12.1822735,3.37503725 11.9999821,3.37503725 Z M17.6249687,19.3124993 L17.6249687,6.18753055 C17.6249687,6.10940573 17.5924169,6.03779152 17.5273127,5.97268731 C17.4622085,5.9075831 17.3905943,5.87503129 17.3124695,5.87503129 L15.7499732,5.87503129 L15.7499732,7.12502831 C15.7499732,7.30731974 15.6913796,7.45705877 15.5741923,7.57424599 C15.4570051,7.69143321 15.3072661,7.75002682 15.1249747,7.75002682 L8.87498957,7.75002682 C8.69269814,7.75002682 8.54295911,7.69143321 8.42577189,7.57424599 C8.30858467,7.45705877 8.24999106,7.30731974 8.24999106,7.12502831 L8.24999106,5.87503129 L6.68749478,5.87503129 C6.60936997,5.87503129 6.53775576,5.9075831 6.47265155,5.97268731 C6.40754734,6.03779152 6.37499553,6.10940573 6.37499553,6.18753055 L6.37499553,19.3124993 C6.37499553,19.3906241 6.40754734,19.4622383 6.47265155,19.5273425 C6.53775576,19.5924467 6.60936997,19.6249985 6.68749478,19.6249985 L17.3124695,19.6249985 C17.3905943,19.6249985 17.4622085,19.5924467 17.5273127,19.5273425 C17.5924169,19.4622383 17.6249687,19.3906241 17.6249687,19.3124993 Z" id="" fill="#5361FD"></path>
    </g>
</svg>