<?xml version="1.0" encoding="UTF-8"?>
<svg width="21px" height="21px" viewBox="0 0 21 21" version="1.1" xmlns="http://www.w3.org/2000/svg" xmlns:xlink="http://www.w3.org/1999/xlink">
    <!-- Generator: Sketch 52.3 (67297) - http://www.bohemiancoding.com/sketch -->
    <title>icon/Doc Copy 3</title>
    <desc>Created with Sketch.</desc>
    <g id="icon/Doc-Copy-3" stroke="none" stroke-width="1" fill="none" fill-rule="evenodd">
        <path d="M17.9999553,17.3750015 C17.9999553,17.8958334 17.8176639,18.3385411 17.4530816,18.7031233 C17.0884993,19.0677056 16.6457917,19.249997 16.1249598,19.249997 L1.12499553,19.249997 C0.604163637,19.249997 0.161455962,19.0677056 -0.203126304,18.7031233 C-0.567708569,18.3385411 -0.75,17.8958334 -0.75,17.3750015 L-0.75,7.37502533 C-0.75,6.85419344 -0.567708569,6.41148576 -0.203126304,6.0469035 C0.161455962,5.68232123 0.604163637,5.5000298 1.12499553,5.5000298 L1.74999404,5.5000298 L1.74999404,13.6250104 C1.74999404,14.4843834 2.05598269,15.2200585 2.6679606,15.8320364 C3.27993851,16.4440143 4.01561364,16.750003 4.87498659,16.750003 L17.9999553,16.750003 L17.9999553,17.3750015 Z M21.7499464,13.6250104 C21.7499464,14.1458423 21.5676549,14.58855 21.2030727,14.9531323 C20.8384904,15.3177145 20.3957827,15.500006 19.8749508,15.500006 L4.87498659,15.500006 C4.3541547,15.500006 3.91144702,15.3177145 3.54686476,14.9531323 C3.18228249,14.58855 2.99999106,14.1458423 2.99999106,13.6250104 L2.99999106,3.62503427 C2.99999106,3.10420238 3.18228249,2.6614947 3.54686476,2.29691244 C3.91144702,1.93233017 4.3541547,1.75003874 4.87498659,1.75003874 L19.8749508,1.75003874 C20.3957827,1.75003874 20.8384904,1.93233017 21.2030727,2.29691244 C21.5676549,2.6614947 21.7499464,3.10420238 21.7499464,3.62503427 L21.7499464,13.6250104 Z M9.24997616,5.5000298 C9.24997616,4.97919791 9.06768473,4.53649023 8.70310246,4.17190797 C8.3385202,3.8073257 7.89581252,3.62503427 7.37498063,3.62503427 C6.85414874,3.62503427 6.41144106,3.8073257 6.04685879,4.17190797 C5.68227653,4.53649023 5.4999851,4.97919791 5.4999851,5.5000298 C5.4999851,6.0208617 5.68227653,6.46356937 6.04685879,6.82815164 C6.41144106,7.1927339 6.85414874,7.37502533 7.37498063,7.37502533 C7.89581252,7.37502533 8.3385202,7.1927339 8.70310246,6.82815164 C9.06768473,6.46356937 9.24997616,6.0208617 9.24997616,5.5000298 Z M5.4999851,11.1250164 L5.4999851,13.0000119 L19.2499523,13.0000119 L19.2499523,8.62502235 L15.8124605,5.18753055 C15.7343357,5.10940573 15.6301691,5.07034333 15.4999613,5.07034333 C15.3697534,5.07034333 15.2655868,5.10940573 15.187462,5.18753055 L9.87497467,10.5000179 L8.31247839,8.93752161 C8.23435358,8.85939679 8.13018696,8.82033439 7.99997914,8.82033439 C7.86977131,8.82033439 7.7656047,8.85939679 7.68747988,8.93752161 L5.4999851,11.1250164 Z" id="" fill="#666666"></path>
    </g>
</svg>