<?xml version="1.0" encoding="UTF-8"?>
<svg width="24px" height="24px" viewBox="0 0 24 24" version="1.1" xmlns="http://www.w3.org/2000/svg" xmlns:xlink="http://www.w3.org/1999/xlink">
    <!-- Generator: Sketch 52.3 (67297) - http://www.bohemiancoding.com/sketch -->
    <title>Document</title>
    <desc>Created with Sketch.</desc>
    <g id="Document" stroke="none" stroke-width="1" fill="none" fill-rule="evenodd">
        <rect id="Rectangle" fill="#FFFFFF" fill-rule="nonzero" x="3.5" y="2" width="16" height="20" rx="3"></rect>
        <path d="M16.4568501,10.59375 C16.4568501,10.1622656 16.1070845,9.8125 15.6756001,9.8125 L7.62872514,9.8125 C7.19724077,9.8125 6.84747514,10.1622656 6.84747514,10.59375 C6.84747514,11.0252344 7.19724077,11.375 7.62872514,11.375 L15.6756001,11.375 C16.1070845,11.375 16.4568501,11.0252344 16.4568501,10.59375 Z" id="Shape" fill="#3D6DEB" fill-rule="nonzero"></path>
        <path d="M7.62872514,12.9375 C7.19724077,12.9375 6.84747514,13.2872656 6.84747514,13.71875 C6.84747514,14.1502344 7.19724077,14.5 7.62872514,14.5 L12.5158736,14.5 C12.947358,14.5 13.2971236,14.1502344 13.2971236,13.71875 C13.2971236,13.2872656 12.947358,12.9375 12.5158736,12.9375 L7.62872514,12.9375 Z" id="Shape" fill="#3D6DEB" fill-rule="nonzero"></path>
        <path d="M9.46466264,20.4375 L6.85181108,20.4375 C5.99024858,20.4375 5.28931108,19.7365625 5.28931108,18.875 L5.28931108,5.125 C5.28931108,4.2634375 5.99024858,3.5625 6.85181108,3.5625 L16.4568501,3.5625 C17.3184126,3.5625 18.0193501,4.2634375 18.0193501,5.125 L18.0193501,9.9296875 C18.0193501,10.3611719 18.3691158,10.7109375 18.8006001,10.7109375 C19.2320845,10.7109375 19.5818501,10.3611719 19.5818501,9.9296875 L19.5818501,5.125 C19.5818501,3.401875 18.1799751,2 16.4568501,2 L6.85181108,2 C5.12868608,2 3.72681108,3.401875 3.72681108,5.125 L3.72681108,18.875 C3.72681108,20.598125 5.12868608,22 6.85181108,22 L9.46466264,22 C9.89614702,22 10.2459126,21.6502344 10.2459126,21.21875 C10.2459126,20.7872656 9.89614702,20.4375 9.46466264,20.4375 Z" id="Shape" fill="#3D6DEB" fill-rule="nonzero"></path>
        <path d="M20.9656392,13.3114062 C20.0518111,12.3975781 18.5649361,12.3975391 17.6516939,13.3107812 L13.3625142,17.5904687 C13.2714205,17.6813672 13.204233,17.7933203 13.1668111,17.9164453 L12.2327095,20.9916406 C12.149897,21.2642969 12.2220455,21.5603516 12.4210298,21.7642969 C12.5700923,21.9170703 12.7725923,22 12.9802876,22 C13.0497798,22 13.1199361,21.9907031 13.1888033,21.9716016 L16.3421236,21.098125 C16.4718892,21.0621875 16.5901705,20.9933203 16.685483,20.8981641 L20.9656783,16.6260156 C21.8795064,15.7121875 21.8795064,14.2253125 20.9656392,13.3114062 Z M15.7270455,19.6471875 L14.1406392,20.0866406 L14.604897,18.5581641 L17.4989986,15.6704688 L18.6040767,16.7755469 L15.7270455,19.6471875 Z M19.8613814,15.5207031 L19.7100142,15.6717578 L18.6051314,14.566875 L18.7559908,14.4163281 C19.0606001,14.1117188 19.5562251,14.1117188 19.8608345,14.4163281 C20.1654439,14.7209375 20.1654439,15.2165625 19.8613814,15.5207031 Z" id="Shape" fill="#3D6DEB" fill-rule="nonzero"></path>
        <path d="M15.6756001,6.6875 L7.62872514,6.6875 C7.19724077,6.6875 6.84747514,7.03726562 6.84747514,7.46875 C6.84747514,7.90023438 7.19724077,8.25 7.62872514,8.25 L15.6756001,8.25 C16.1070845,8.25 16.4568501,7.90023438 16.4568501,7.46875 C16.4568501,7.03726562 16.1070845,6.6875 15.6756001,6.6875 Z" id="Shape" fill="#3D6DEB" fill-rule="nonzero"></path>
    </g>
</svg>