<?xml version="1.0" encoding="UTF-8"?>
<svg width="24px" height="24px" viewBox="0 0 24 24" version="1.1" xmlns="http://www.w3.org/2000/svg" xmlns:xlink="http://www.w3.org/1999/xlink">
    <!-- Generator: Sketch 52.3 (67297) - http://www.bohemiancoding.com/sketch -->
    <title>icon/Files Light</title>
    <desc>Created with Sketch.</desc>
    <g id="icon/Files-Light" stroke="none" stroke-width="1" fill="none" fill-rule="evenodd">
        <path d="M20.9374483,2.50004649 C21.5103633,2.50004649 21.9973416,2.70056702 22.3983821,3.10160743 C22.7994225,3.50264784 22.999943,3.98962618 22.999943,4.56254115 L22.999943,8.00003224 C22.999943,8.20055277 22.93549,8.36526567 22.8065841,8.49417159 C22.6776782,8.6230775 22.5129653,8.68753046 22.3124448,8.68753046 L21.6249466,8.68753046 L21.6249466,20.3750002 C21.6249466,20.7473953 21.488879,21.0696601 21.2167445,21.3417945 C20.94461,21.613929 20.6223452,21.7499966 20.2499501,21.7499966 L3.74999287,21.7499966 C3.37759779,21.7499966 3.055333,21.613929 2.7831985,21.3417945 C2.51106401,21.0696601 2.37499644,20.7473953 2.37499644,20.3750002 L2.37499644,8.68753046 L1.68749822,8.68753046 C1.48697769,8.68753046 1.32226479,8.6230775 1.19335887,8.49417159 C1.06445296,8.36526567 1,8.20055277 1,8.00003224 L1,4.56254115 C1,3.98962618 1.20052053,3.50264784 1.60156094,3.10160743 C2.00260135,2.70056702 2.48957969,2.50004649 3.06249466,2.50004649 L20.9374483,2.50004649 Z M19.5624519,19.687502 L19.5624519,8.68753046 L4.43749109,8.68753046 L4.43749109,19.687502 L19.5624519,19.687502 Z M20.9374483,6.6250358 L20.9374483,4.56254115 L3.06249466,4.56254115 L3.06249466,6.6250358 L20.9374483,6.6250358 Z M9.76560229,12.8125198 C9.62237371,12.8125198 9.5006288,12.7623895 9.40036886,12.6621295 C9.30010892,12.5618696 9.24997862,12.4401247 9.24997862,12.2968961 L9.24997862,11.2656488 C9.24997862,11.1224202 9.30010892,11.0006753 9.40036886,10.9004154 C9.5006288,10.8001554 9.62237371,10.7500251 9.76560229,10.7500251 L14.2343407,10.7500251 C14.3775693,10.7500251 14.4993142,10.8001554 14.5995741,10.9004154 C14.6998341,11.0006753 14.7499644,11.1224202 14.7499644,11.2656488 L14.7499644,12.2968961 C14.7499644,12.4401247 14.6998341,12.5618696 14.5995741,12.6621295 C14.4993142,12.7623895 14.3775693,12.8125198 14.2343407,12.8125198 L9.76560229,12.8125198 Z" id="" fill="#5361FD"></path>
    </g>
</svg>