<?xml version="1.0" encoding="UTF-8"?>
<svg width="24px" height="24px" viewBox="0 0 24 24" version="1.1" xmlns="http://www.w3.org/2000/svg" xmlns:xlink="http://www.w3.org/1999/xlink">
    <!-- Generator: Sketch 52.3 (67297) - http://www.bohemiancoding.com/sketch -->
    <title>icon/Folder</title>
    <desc>Created with Sketch.</desc>
    <g id="icon/Folder" stroke="none" stroke-width="1" fill="none" fill-rule="evenodd">
        <path d="M20.9374565,5.93336309 C21.5103717,5.93336309 21.9973502,6.14725177 22.3983908,6.57502844 C22.7994314,7.00280511 22.999952,7.52224896 22.999952,8.13335858 L22.999952,18.4000042 C22.999952,19.0111139 22.7994314,19.5305577 22.3983908,19.9583344 C21.9973502,20.386111 21.5103717,20.5999997 20.9374565,20.5999997 L3.0624955,20.5999997 C2.4895803,20.5999997 2.00260176,20.386111 1.60156119,19.9583344 C1.20052061,19.5305577 1,19.0111139 1,18.4000042 L1,5.20003126 C1,4.58892163 1.20052061,4.06947778 1.60156119,3.64170112 C2.00260176,3.21392445 2.4895803,3.00003576 3.0624955,3.00003576 L9.9374805,3.00003576 L12.6874745,5.93336309 L20.9374565,5.93336309 Z" id="ï»" fill="#42BFFE"></path>
    </g>
</svg>