<?xml version="1.0" encoding="UTF-8"?>
<svg width="24px" height="24px" viewBox="0 0 24 24" version="1.1" xmlns="http://www.w3.org/2000/svg" xmlns:xlink="http://www.w3.org/1999/xlink">
    <!-- Generator: Sketch 52.3 (67297) - http://www.bohemiancoding.com/sketch -->
    <title>icon/gear</title>
    <desc>Created with Sketch.</desc>
    <g id="icon/gear" stroke="none" stroke-width="1" fill="none" fill-rule="evenodd">
        <path d="M20.3593091,13.5524194 L22.2169334,14.6612903 C22.334878,14.7204299 22.4159645,14.8091396 22.4601937,14.9274194 C22.5044228,15.0456992 22.5117946,15.1639783 22.4823082,15.2822581 C21.9810448,16.8494621 21.1701766,18.2392475 20.0497051,19.4516129 C19.9612468,19.5403226 19.8580456,19.5994621 19.740101,19.6290323 C19.6221564,19.6586024 19.5042125,19.643817 19.3862678,19.5846774 L17.5286436,18.4758065 C16.7325189,19.1559138 15.8331931,19.6733871 14.8306655,20.0282258 L14.8306655,22.2016129 C14.8306655,22.3198927 14.7938081,22.4307798 14.7200926,22.5342742 C14.6463772,22.6377686 14.5505478,22.7043008 14.4326032,22.733871 C12.8108675,23.0887097 11.1891325,23.0887097 9.56739682,22.733871 C9.4494522,22.7043008 9.35362283,22.6377686 9.27990735,22.5342742 C9.20619188,22.4307798 9.16933448,22.3198927 9.16933448,22.2016129 L9.16933448,20.0282258 C8.16680689,19.6733871 7.26748109,19.1559138 6.47135641,18.4758065 L4.61373217,19.5846774 C4.49578754,19.643817 4.3778436,19.6586024 4.25989898,19.6290323 C4.14195435,19.5994621 4.03875323,19.5403226 3.95029494,19.4516129 C2.82982339,18.2392475 2.01895522,16.8494621 1.51769176,15.2822581 C1.48820543,15.1639783 1.49557718,15.0456992 1.53980633,14.9274194 C1.58403548,14.8091396 1.66512203,14.7204299 1.78306665,14.6612903 L3.64069089,13.5524194 C3.4637743,12.5174733 3.4637743,11.4825267 3.64069089,10.4475806 L1.78306665,9.33870968 C1.66512203,9.27957012 1.58403548,9.19086044 1.53980633,9.07258065 C1.49557718,8.95430085 1.48820543,8.83602173 1.51769176,8.71774194 C2.01895522,7.15053786 2.82982339,5.76075246 3.95029494,4.5483871 C4.03875323,4.45967742 4.14195435,4.40053786 4.25989898,4.37096774 C4.3778436,4.34139762 4.49578754,4.35618302 4.61373217,4.41532258 L6.47135641,5.52419355 C7.26748109,4.84408625 8.16680689,4.3266129 9.16933448,3.97177419 L9.16933448,1.7983871 C9.16933448,1.6801073 9.20619188,1.5692202 9.27990735,1.46572581 C9.35362283,1.36223141 9.4494522,1.29569915 9.56739682,1.26612903 C11.1891325,0.911290323 12.8108675,0.911290323 14.4326032,1.26612903 C14.5505478,1.29569915 14.6463772,1.36223141 14.7200926,1.46572581 C14.7938081,1.5692202 14.8306655,1.6801073 14.8306655,1.7983871 L14.8306655,3.97177419 C15.8331931,4.3266129 16.7325189,4.84408625 17.5286436,5.52419355 L19.3862678,4.41532258 C19.5042125,4.35618302 19.6221564,4.34139762 19.740101,4.37096774 C19.8580456,4.40053786 19.9612468,4.45967742 20.0497051,4.5483871 C21.1701766,5.76075246 21.9810448,7.15053786 22.4823082,8.71774194 C22.5117946,8.83602173 22.5044228,8.95430085 22.4601937,9.07258065 C22.4159645,9.19086044 22.334878,9.27957012 22.2169334,9.33870968 L20.3593091,10.4475806 C20.5362257,11.4825267 20.5362257,12.5174733 20.3593091,13.5524194 Z M15.5383319,12 C15.5383319,11.0241935 15.1918705,10.1888443 14.4989469,9.49395161 C13.8060233,8.79905891 12.9730413,8.4516129 12,8.4516129 C11.0269587,8.4516129 10.1939767,8.79905891 9.5010531,9.49395161 C8.80812954,10.1888443 8.4616681,11.0241935 8.4616681,12 C8.4616681,12.9758065 8.80812954,13.8111557 9.5010531,14.5060484 C10.1939767,15.2009411 11.0269587,15.5483871 12,15.5483871 C12.9730413,15.5483871 13.8060233,15.2009411 14.4989469,14.5060484 C15.1918705,13.8111557 15.5383319,12.9758065 15.5383319,12 Z" id="" fill="#666666"></path>
    </g>
</svg>