<?xml version="1.0" encoding="UTF-8"?>
<svg width="21px" height="21px" viewBox="0 0 21 21" version="1.1" xmlns="http://www.w3.org/2000/svg" xmlns:xlink="http://www.w3.org/1999/xlink">
    <!-- Generator: Sketch 52.3 (67297) - http://www.bohemiancoding.com/sketch -->
    <title>icon/Image</title>
    <desc>Created with Sketch.</desc>
    <g id="icon/Image" stroke="none" stroke-width="1" fill="none" fill-rule="evenodd">
        <path d="M18.6249568,18 L2.37499553,18 C1.85416364,18 1.41145596,17.8177086 1.0468737,17.4531263 C0.682291431,17.088544 0.5,16.6458364 0.5,16.1250045 L0.5,4.87503129 C0.5,4.3541994 0.682291431,3.91149172 1.0468737,3.54690946 C1.41145596,3.18232719 1.85416364,3.00003576 2.37499553,3.00003576 L18.6249568,3.00003576 C19.1457887,3.00003576 19.5884964,3.18232719 19.9530786,3.54690946 C20.3176609,3.91149172 20.4999523,4.3541994 20.4999523,4.87503129 L20.4999523,16.1250045 C20.4999523,16.6458364 20.3176609,17.088544 19.9530786,17.4531263 C19.5884964,17.8177086 19.1457887,18 18.6249568,18 Z M4.87498957,5.18753055 C4.27603286,5.18753055 3.76171097,5.40237379 3.3320245,5.83206026 C2.90233802,6.26174674 2.68749478,6.77606863 2.68749478,7.37502533 C2.68749478,7.97398204 2.90233802,8.48830393 3.3320245,8.9179904 C3.76171097,9.34767688 4.27603286,9.56252012 4.87498957,9.56252012 C5.47394628,9.56252012 5.98826816,9.34767688 6.41795464,8.9179904 C6.84764112,8.48830393 7.06248435,7.97398204 7.06248435,7.37502533 C7.06248435,6.77606863 6.84764112,6.26174674 6.41795464,5.83206026 C5.98826816,5.40237379 5.47394628,5.18753055 4.87498957,5.18753055 Z M2.99999404,15.500006 L17.9999583,15.500006 L17.9999583,11.1250164 L14.5624665,7.68752459 C14.4843417,7.60939977 14.380175,7.57033737 14.2499672,7.57033737 C14.1197594,7.57033737 14.0155928,7.60939977 13.937468,7.68752459 L8.62498063,13.0000119 L6.43748584,10.8125171 C6.35936103,10.7343923 6.25519441,10.6953299 6.12498659,10.6953299 C5.99477876,10.6953299 5.89061215,10.7343923 5.81248733,10.8125171 L2.99999404,13.6250104 L2.99999404,15.500006 Z" id="" fill="#666666"></path>
    </g>
</svg>