<?xml version="1.0" encoding="UTF-8"?>
<svg width="21px" height="21px" viewBox="0 0 21 21" version="1.1" xmlns="http://www.w3.org/2000/svg" xmlns:xlink="http://www.w3.org/1999/xlink">
    <!-- Generator: Sketch 52.3 (67297) - http://www.bohemiancoding.com/sketch -->
    <title>icon/Lock</title>
    <desc>Created with Sketch.</desc>
    <g id="icon/Lock" stroke="none" stroke-width="1" fill="none" fill-rule="evenodd">
        <path d="M17.3749627,9.25002086 C17.8957946,9.25002086 18.3385023,9.43231229 18.7030846,9.79689456 C19.0676668,10.1614768 19.2499583,10.6041845 19.2499583,11.1250164 L19.2499583,18.6249985 C19.2499583,19.1458304 19.0676668,19.5885381 18.7030846,19.9531203 C18.3385023,20.3177026 17.8957946,20.499994 17.3749627,20.499994 L3.62499553,20.499994 C3.10416364,20.499994 2.66145596,20.3177026 2.2968737,19.9531203 C1.93229143,19.5885381 1.75,19.1458304 1.75,18.6249985 L1.75,11.1250164 C1.75,10.6041845 1.93229143,10.1614768 2.2968737,9.79689456 C2.66145596,9.43231229 3.10416364,9.25002086 3.62499553,9.25002086 L4.56249329,9.25002086 L4.56249329,6.43752757 C4.56249329,5.36982198 4.82941954,4.38024061 5.36327264,3.46878465 C5.89712573,2.55732868 6.61978025,1.83467416 7.53123622,1.30082106 C8.44269218,0.766967971 9.43227355,0.500041723 10.4999791,0.500041723 C11.5676847,0.500041723 12.5572661,0.766967971 13.4687221,1.30082106 C14.380178,1.83467416 15.1028325,2.55732868 15.6366856,3.46878465 C16.1705387,4.38024061 16.437465,5.36982198 16.437465,6.43752757 L16.437465,9.25002086 L17.3749627,9.25002086 Z M12.0624754,15.8125052 L12.0624754,13.9375097 C12.0624754,13.4948026 11.9127364,13.1237097 11.6132577,12.8242311 C11.3137791,12.5247524 10.9426862,12.3750134 10.4999791,12.3750134 C10.0572721,12.3750134 9.68617919,12.5247524 9.38670054,12.8242311 C9.08722189,13.1237097 8.93748286,13.4948026 8.93748286,13.9375097 L8.93748286,15.8125052 C8.93748286,16.2552123 9.08722189,16.6263052 9.38670054,16.9257838 C9.68617919,17.2252625 10.0572721,17.3750015 10.4999791,17.3750015 C10.9426862,17.3750015 11.3137791,17.2252625 11.6132577,16.9257838 C11.9127364,16.6263052 12.0624754,16.2552123 12.0624754,15.8125052 Z M13.3124724,9.25002086 L13.3124724,6.43752757 C13.3124724,5.65627943 13.0390356,4.99221851 12.4921619,4.44534482 C11.9452882,3.89847112 11.2812273,3.62503427 10.4999791,3.62503427 C9.718731,3.62503427 9.05467008,3.89847112 8.50779639,4.44534482 C7.96092269,4.99221851 7.68748584,5.65627943 7.68748584,6.43752757 L7.68748584,9.25002086 L13.3124724,9.25002086 Z" id="ïŒ" fill="#666666"></path>
    </g>
</svg>