<?xml version="1.0" encoding="UTF-8"?>
<svg width="24px" height="24px" viewBox="0 0 24 24" version="1.1" xmlns="http://www.w3.org/2000/svg" xmlns:xlink="http://www.w3.org/1999/xlink">
    <!-- Generator: Sketch 52.3 (67297) - http://www.bohemiancoding.com/sketch -->
    <title>icon/pdf</title>
    <desc>Created with Sketch.</desc>
    <g id="icon/pdf" stroke="none" stroke-width="1" fill="none" fill-rule="evenodd">
        <path d="M19.3340905,5.8281576 C19.6986728,6.19273986 19.8809642,6.63544754 19.8809642,7.15627943 L19.8809642,20.1249985 C19.8809642,20.6458304 19.6986728,21.0885381 19.3340905,21.4531203 C18.9695083,21.8177026 18.5268006,21.999994 18.0059687,21.999994 L6.75599553,21.999994 C6.23516364,21.999994 5.79245596,21.8177026 5.4278737,21.4531203 C5.06329143,21.0885381 4.881,20.6458304 4.881,20.1249985 L4.881,3.87503725 C4.881,3.35420536 5.06329143,2.91149768 5.4278737,2.54691542 C5.79245596,2.18233315 6.23516364,2.00004172 6.75599553,2.00004172 L14.7247265,2.00004172 C15.2455584,2.00004172 15.6882661,2.18233315 16.0528484,2.54691542 L19.3340905,5.8281576 Z M18.4356552,6.72659295 L15.154413,3.44535078 C15.0762882,3.36722596 14.9851428,3.30212175 14.8809762,3.25003874 L14.8809762,7.0000298 L18.6309672,7.0000298 C18.5788842,6.89586319 18.51378,6.80471777 18.4356552,6.72659295 Z M18.0059687,20.749997 C18.1882601,20.749997 18.3379992,20.6914034 18.4551864,20.5742162 C18.5723736,20.457029 18.6309672,20.3072899 18.6309672,20.1249985 L18.6309672,8.25002682 L14.5684769,8.25002682 C14.3080607,8.25002682 14.0867074,8.1588814 13.904416,7.97658997 C13.7221246,7.79429854 13.6309791,7.5729453 13.6309791,7.31252906 L13.6309791,3.25003874 L6.75599553,3.25003874 C6.5737041,3.25003874 6.42396507,3.30863235 6.30677785,3.42581957 C6.18959063,3.54300679 6.13099702,3.69274582 6.13099702,3.87503725 L6.13099702,20.1249985 C6.13099702,20.3072899 6.18959063,20.457029 6.30677785,20.5742162 C6.42396507,20.6914034 6.5737041,20.749997 6.75599553,20.749997 L18.0059687,20.749997 Z M17.1465958,14.0703254 C17.2768036,14.2005333 17.3549284,14.3958453 17.3809702,14.6562615 C17.407012,14.9166778 17.3353972,15.1445416 17.166127,15.3398537 C16.9968567,15.5351657 16.7494611,15.6328217 16.4239412,15.6328217 C16.0984214,15.6328217 15.7012867,15.5612075 15.2325378,15.4179785 C14.7637889,15.2747495 14.3210819,15.085948 13.904416,14.8515736 C13.3575423,14.9557402 12.4851487,15.2031352 11.2872347,15.5937593 L10.7012986,15.7890713 C10.2325497,16.5963613 9.82239447,17.195318 9.47083281,17.5859421 C9.11927115,17.9765661 8.76119888,18.19792 8.39661662,18.250003 C8.08411736,18.2760448 7.83021172,18.1914094 7.63489968,17.9960973 C7.43958765,17.8007853 7.35495224,17.5859421 7.38099404,17.3515676 C7.53724367,16.7005273 8.3054712,16.0104252 9.68567604,15.2812601 C10.1804667,14.4479289 10.7273404,13.3020979 11.3262971,11.8437683 C11.1440057,11.1146031 11.0268185,10.528667 10.9747355,10.0859599 C10.8966107,9.56512805 10.9096313,9.13544158 11.0137979,8.79690052 C11.0658809,8.56252608 11.2286411,8.39976585 11.502078,8.30862043 C11.7755148,8.21747502 12.0424411,8.23049562 12.3028573,8.34768284 C12.5632735,8.46487006 12.7195232,8.7057551 12.7716062,9.07033737 C12.849731,9.35679482 12.849731,9.74741889 12.7716062,10.2422096 C12.7455644,10.528667 12.6674396,10.9323123 12.5372317,11.4531442 L12.4981693,11.5703314 C12.8887934,12.585954 13.4747295,13.3281397 14.2559776,13.7968886 C15.7924321,13.588556 16.7559717,13.6797014 17.1465958,14.0703254 Z M8.20130458,17.5468797 C8.20130458,17.5729215 8.26640879,17.5338591 8.39661662,17.4296924 C8.52682444,17.3255258 8.67005347,17.1692762 8.82630309,16.9609436 C9.06067753,16.7005273 9.30807258,16.3619868 9.56848882,15.945321 L9.4513016,16.0625082 C8.74817828,16.6875067 8.33151241,17.1822974 8.20130458,17.5468797 Z M11.9122332,8.83596293 L11.9122332,8.87502533 C11.8601502,8.87502533 11.8341084,9.10939977 11.8341084,9.57814866 C11.8341084,10.0468975 11.8861914,10.424501 11.990358,10.7109585 C12.1205659,10.5026258 12.1791595,10.138043 12.1661389,9.61721106 C12.1531183,9.09637917 12.0684829,8.83596293 11.9122332,8.83596293 Z M10.8184858,15.085948 L11.3262971,14.8515736 C12.1596283,14.5130325 12.8106686,14.3046999 13.2794175,14.2265751 C12.7325438,13.8099092 12.2768155,13.2630355 11.9122332,12.585954 C11.5216092,13.6276184 11.1570269,14.4609495 10.8184858,15.085948 Z M16.7950341,14.8515736 C16.8731589,14.7994906 16.8666483,14.740897 16.7755029,14.6757928 C16.6843575,14.6106885 16.5215972,14.5520949 16.2872228,14.5000119 C15.9747236,14.4479289 15.5840995,14.4479289 15.1153506,14.5000119 C15.5320165,14.6823034 15.8965987,14.7994906 16.209098,14.8515736 C16.4174306,14.9036566 16.5736803,14.9166778 16.6778469,14.890636 C16.7299299,14.890636 16.7689923,14.8776154 16.7950341,14.8515736 Z" id="ï‡" fill="#EE5A4F"></path>
    </g>
</svg>