<?xml version="1.0" encoding="UTF-8"?>
<svg width="24px" height="24px" viewBox="0 0 24 24" version="1.1" xmlns="http://www.w3.org/2000/svg" xmlns:xlink="http://www.w3.org/1999/xlink">
    <!-- Generator: Sketch 52.3 (67297) - http://www.bohemiancoding.com/sketch -->
    <title>icon/Person</title>
    <desc>Created with Sketch.</desc>
    <g id="icon/Person" stroke="none" stroke-width="1" fill="none" fill-rule="evenodd">
        <path d="M11.9999791,11.9999762 C11.0885232,11.9999762 10.2486814,11.7786223 9.4804539,11.3359152 C8.71222636,10.8932082 8.10675906,10.2877409 7.66405198,9.51951332 C7.2213449,8.75128579 6.99999106,7.91144404 6.99999106,6.99998808 C6.99999106,6.08853212 7.2213449,5.24869037 7.66405198,4.48046284 C8.10675906,3.7122353 8.71222636,3.106768 9.4804539,2.66406092 C10.2486814,2.22135384 11.0885232,2 11.9999791,2 C12.9114351,2 13.7512768,2.22135384 14.5195044,2.66406092 C15.2877319,3.106768 15.8931992,3.7122353 16.3359063,4.48046284 C16.7786134,5.24869037 16.9999672,6.08853212 16.9999672,6.99998808 C16.9999672,7.91144404 16.7786134,8.75128579 16.3359063,9.51951332 C15.8931992,10.2877409 15.2877319,10.8932082 14.5195044,11.3359152 C13.7512768,11.7786223 12.9114351,11.9999762 11.9999791,11.9999762 Z M15.5155958,13.2499732 C16.4530935,13.2499732 17.3254871,13.4843476 18.132777,13.9530965 C18.940067,14.4218454 19.5780861,15.0598645 20.046835,15.8671544 C20.5155838,16.6744444 20.7499583,17.5468379 20.7499583,18.4843357 L20.7499583,20.1249568 C20.7499583,20.6457887 20.5676668,21.0884964 20.2030846,21.4530786 C19.8385023,21.8176609 19.3957946,21.9999523 18.8749627,21.9999523 L5.12499553,21.9999523 C4.60416364,21.9999523 4.16145596,21.8176609 3.7968737,21.4530786 C3.43229143,21.0884964 3.25,20.6457887 3.25,20.1249568 L3.25,18.4843357 C3.25,17.5468379 3.48437444,16.6744444 3.95312332,15.8671544 C4.42187221,15.0598645 5.05989132,14.4218454 5.86718126,13.9530965 C6.6744712,13.4843476 7.54686476,13.2499732 8.48436252,13.2499732 L9.14842344,13.2499732 C10.0598794,13.666639 11.0103984,13.8749717 11.9999791,13.8749717 C12.9895599,13.8749717 13.9400789,13.666639 14.8515348,13.2499732 L15.5155958,13.2499732 Z" id="" fill="#656E75"></path>
    </g>
</svg>