<?xml version="1.0" encoding="UTF-8"?>
<svg width="24px" height="24px" viewBox="0 0 24 24" version="1.1" xmlns="http://www.w3.org/2000/svg" xmlns:xlink="http://www.w3.org/1999/xlink">
    <!-- Generator: Sketch 52.3 (67297) - http://www.bohemiancoding.com/sketch -->
    <title>icon/Playlist</title>
    <desc>Created with Sketch.</desc>
    <defs>
        <circle id="path-1" cx="12" cy="12" r="12"></circle>
    </defs>
    <g id="icon/Playlist" stroke="none" stroke-width="1" fill="none" fill-rule="evenodd">
        <mask id="mask-2" fill="white">
            <use xlink:href="#path-1"></use>
        </mask>
        <use id="Oval-7" fill="#FF598B" fill-rule="nonzero" xlink:href="#path-1"></use>
        <path d="M11.5,24.5 L3.6,15.6 C3.6,14.6 3.5,14.4444146 3.5,14 C3.5,12.6666667 4,11.9166667 5,11.75 C5,10.5833333 5.5,10 6.5,10 C7.16666667,7.33333333 9,6 12,6 C15,6 16.6666667,6.41666667 17,7.25 L24,15.5 L24,24.5 L11.5,24.5 Z" id="Path-7" fill="#E6293F" fill-rule="nonzero" mask="url(#mask-2)"></path>
        <g id="Group-13" mask="url(#mask-2)">
            <g transform="translate(3.000000, 5.000000)">
                <g id="Group-12" stroke="none" fill-rule="evenodd" transform="translate(0.000000, 4.500000)">
                    <path d="M3.5,0 L4.75,0 C4.88807119,-2.53632657e-17 5,0.111928813 5,0.25 L5,8.75 C5,8.88807119 4.88807119,9 4.75,9 L3.5,9 C2.67157288,9 2,8.32842712 2,7.5 L2,1.5 C2,0.671572875 2.67157288,-2.91909616e-16 3.5,-4.4408921e-16 Z M3.75,0.75 C3.19771525,0.75 2.75,1.19771525 2.75,1.75 L2.75,7.25 C2.75,7.80228475 3.19771525,8.25 3.75,8.25 L4.25,8.25 L4.25,0.75 L3.75,0.75 Z" id="Combined-Shape" fill="#FFFFFF" fill-rule="nonzero"></path>
                    <path d="M2,2.5 C1.17157288,2.5 0.5,3.3954305 0.5,4.5 C0.5,5.6045695 1.17157288,6.5 2,6.5" id="Oval-9" stroke="#FFFFFF" stroke-width="0.75" fill-rule="nonzero"></path>
                </g>
                <g id="Group-12" stroke="none" fill-rule="evenodd" transform="translate(15.500000, 9.000000) scale(-1, 1) translate(-15.500000, -9.000000) translate(13.000000, 4.500000)">
                    <path d="M3.5,0 L4.75,0 C4.88807119,-2.53632657e-17 5,0.111928813 5,0.25 L5,8.75 C5,8.88807119 4.88807119,9 4.75,9 L3.5,9 C2.67157288,9 2,8.32842712 2,7.5 L2,1.5 C2,0.671572875 2.67157288,-2.91909616e-16 3.5,-4.4408921e-16 Z M3.75,0.75 C3.19771525,0.75 2.75,1.19771525 2.75,1.75 L2.75,7.25 C2.75,7.80228475 3.19771525,8.25 3.75,8.25 L4.25,8.25 L4.25,0.75 L3.75,0.75 Z" id="Combined-Shape" fill="#FFFFFF" fill-rule="nonzero"></path>
                    <path d="M2,2.5 C1.17157288,2.5 0.5,3.3954305 0.5,4.5 C0.5,5.6045695 1.17157288,6.5 2,6.5" id="Oval-9" stroke="#FFFFFF" stroke-width="0.75" fill-rule="nonzero"></path>
                </g>
                <path d="M14.5,5 C14.5,2.51471863 12.0375661,0.5 9,0.5 C5.96243388,0.5 3.5,2.51471863 3.5,5" id="Oval-10" stroke="#FFFFFF" fill-rule="nonzero"></path>
            </g>
        </g>
    </g>
</svg>