<?xml version="1.0" encoding="UTF-8"?>
<svg width="24px" height="24px" viewBox="0 0 24 24" version="1.1" xmlns="http://www.w3.org/2000/svg" xmlns:xlink="http://www.w3.org/1999/xlink">
    <!-- Generator: Sketch 52.3 (67297) - http://www.bohemiancoding.com/sketch -->
    <title>icon/Publisher</title>
    <desc>Created with Sketch.</desc>
    <g id="icon/Publisher" stroke="none" stroke-width="1" fill="none" fill-rule="evenodd">
        <g id="edit" transform="translate(0.000000, 0.500000)" fill-rule="nonzero">
            <path d="M0,16.66875 L0,1.48125 C0.004875,1.213875 0.220125,0.998625 0.4875,0.99375 L23.5125,0.99375 C23.779875,0.998625 23.995125,1.213875 24,1.48125 L24,16.66875 L0,16.66875 Z" id="Shape" fill="#7C55FB"></path>
            <g id="Group" transform="translate(0.000000, 16.640625)" fill="#7C55FB">
                <path d="M24,0.028125 L24,1.978125 C23.995125,2.2455 23.779875,2.46075 23.5125,2.465625 L0.4875,2.465625 C0.220125,2.46075 0.004875,2.2455 0,1.978125 L0,0.028125 L24,0.028125 Z" id="Shape" fill-opacity="0.400000006"></path>
                <polygon id="Rectangle-path" fill-opacity="0.6" points="6.8625 5.915625 17.1375 5.915625 17.1375 6.415625 6.8625 6.415625"></polygon>
            </g>
            <polygon id="Shape" fill-opacity="0.6" fill="#7C55FB" points="15.4125 22.55625 8.5875 22.55625 9.075 19.10625 14.925 19.10625"></polygon>
            <rect id="Rectangle-path" fill="#FCFAF7" x="0.975" y="1.96875" width="22.05" height="13.725"></rect>
            <polygon id="Shape" fill-opacity="0.8" fill="#7C55FB" points="14.925 19.10625 9.075 19.10625 8.80275 21.031875 15.01275 19.726125"></polygon>
            <g id="Group" transform="translate(4.781250, 3.468750)" fill="#CCCCCC">
                <path d="M5.6205,0.4215 C8.504625,0.4215 10.84275,2.759625 10.84275,5.64375 C10.84275,8.527875 8.504625,10.866 5.6205,10.866 C2.736375,10.866 0.39825,8.527875 0.39825,5.64375 C0.401625,2.761125 2.737875,0.424875 5.6205,0.4215 Z M5.6205,0.0465 C2.529375,0.046875 0.02325,2.553 0.023625,5.644125 C0.024,8.73525 2.530125,11.241375 5.62125,11.241 C8.712375,11.240625 11.218125,8.734875 11.218125,5.64375 C11.218125,2.552625 8.712,0.0465 5.620875,0.0465 C5.620875,0.0465 5.6205,0.0465 5.6205,0.0465 Z" id="Shape"></path>
                <path d="M5.6205,1.872 C7.703625,1.872 9.39225,3.560625 9.39225,5.64375 C9.39225,7.726875 7.703625,9.4155 5.6205,9.4155 C3.537375,9.4155 1.84875,7.726875 1.84875,5.64375 C1.851,3.56175 3.5385,1.87425 5.6205,1.872 Z M5.6205,1.497 C3.330375,1.49775 1.4745,3.355125 1.47525,5.64525 C1.476,7.935375 3.333375,9.79125 5.6235,9.7905 C7.91325,9.78975 9.76875,7.9335 9.76875,5.64375 C9.76875,3.353625 7.912125,1.497 5.622,1.497 C5.621625,1.497 5.620875,1.497 5.6205,1.497 Z" id="Shape"></path>
            </g>
            <polygon id="Shape" fill="#E2E2E2" points="8.7135 10.501125 11.651625 9.732 19.1955 2.188125 17.026125 0.01875 9.48225 7.562625"></polygon>
            <polyline id="Shape" fill="#727272" points="9.135 8.88975 8.7135 10.501125 10.3245 10.07925"></polyline>
            <polygon id="Rectangle-path" fill="#000000" transform="translate(16.907139, 2.308802) rotate(-45.000000) translate(-16.907139, -2.308802) " points="16.7432657 0.774903031 17.2432657 0.774903031 17.2432657 3.84270174 16.7432657 3.84270174"></polygon>
            <rect id="Rectangle-path" fill="#73D1C0" transform="translate(13.944657, 5.269147) rotate(-45.000000) translate(-13.944657, -5.269147) " x="9.16874964" y="3.73524774" width="9.55181465" height="3.0677987"></rect>
            <rect id="Rectangle-path" fill="#727272" transform="translate(17.417028, 1.795244) rotate(-45.000000) translate(-17.417028, -1.795244) " x="16.4388503" y="0.261344549" width="1.95635624" height="3.0677987"></rect>
            <g id="Group" opacity="0.25" transform="translate(8.671875, 0.000000)" fill="#FFFFFF">
                <polygon id="Shape" points="0.041625 10.501125 9.479625 1.144125 8.35425 0.01875 0.8115 7.561125"></polygon>
            </g>
        </g>
    </g>
</svg>