<?xml version="1.0" encoding="UTF-8"?>
<svg width="24px" height="24px" viewBox="0 0 24 24" version="1.1" xmlns="http://www.w3.org/2000/svg" xmlns:xlink="http://www.w3.org/1999/xlink">
    <!-- Generator: Sketch 52.3 (67297) - http://www.bohemiancoding.com/sketch -->
    <title>icon/Recent White Outline Active</title>
    <desc>Created with Sketch.</desc>
    <g id="icon/Recent-White-Outline-Active" stroke="none" stroke-width="1" fill="none" fill-rule="evenodd">
        <path d="M21.8085462,10.5468928 C22.0194832,10.8281421 22.1249517,11.1445476 22.1249517,11.4961093 L22.1249517,16.312504 C22.1249517,16.7812527 21.9608894,17.1796896 21.6327654,17.5078137 C21.3046414,17.8359377 20.9062044,18 20.4374557,18 L3.56249598,18 C3.09374727,18 2.69531037,17.8359377 2.36718633,17.5078137 C2.03906229,17.1796896 1.875,16.7812527 1.875,16.312504 L1.875,11.4961093 C1.875,11.1445476 1.9804685,10.8281421 2.1914055,10.5468928 L5.88280294,5.23831168 C6.02342761,5.00393706 6.21678652,4.82229722 6.46287969,4.6933911 C6.70897285,4.56448498 6.9726441,4.50003219 7.25389343,4.50003219 L16.7460583,4.50003219 C17.0273076,4.50003219 17.2909789,4.56448498 17.537072,4.6933911 C17.7831652,4.82229722 17.9765241,5.00393706 18.1171488,5.23831168 L21.8085462,10.5468928 Z M7.25389343,6.18752816 L4.51171246,10.1250188 L8.8359209,10.1250188 L9.96091822,12.3750134 L14.0390335,12.3750134 L15.1640308,10.1250188 L19.4882393,10.1250188 L16.7460583,6.18752816 L7.25389343,6.18752816 Z M20.4374557,16.312504 L20.4374557,11.8125148 L16.2187158,11.8125148 L15.0937185,14.0625094 L8.90623324,14.0625094 L7.78123592,11.8125148 L3.56249598,11.8125148 L3.56249598,16.312504 L20.4374557,16.312504 Z" id="Recent" fill="#7C55FB"></path>
        <path d="M21.8085462,10.5468928 C22.0194832,10.8281421 22.1249517,11.1445476 22.1249517,11.4961093 L22.1249517,16.312504 C22.1249517,16.7812527 21.9608894,17.1796896 21.6327654,17.5078137 C21.3046414,17.8359377 20.9062044,18 20.4374557,18 L3.56249598,18 C3.09374727,18 2.69531037,17.8359377 2.36718633,17.5078137 C2.03906229,17.1796896 1.875,16.7812527 1.875,16.312504 L1.875,11.4961093 C1.875,11.1445476 1.9804685,10.8281421 2.1914055,10.5468928 L5.88280294,5.23831168 C6.02342761,5.00393706 6.21678652,4.82229722 6.46287969,4.6933911 C6.70897285,4.56448498 6.9726441,4.50003219 7.25389343,4.50003219 L16.7460583,4.50003219 C17.0273076,4.50003219 17.2909789,4.56448498 17.537072,4.6933911 C17.7831652,4.82229722 17.9765241,5.00393706 18.1171488,5.23831168 L21.8085462,10.5468928 Z M7.25389343,6.18752816 L4.51171246,10.1250188 L8.8359209,10.1250188 L9.96091822,12.3750134 L14.0390335,12.3750134 L15.1640308,10.1250188 L19.4882393,10.1250188 L16.7460583,6.18752816 L7.25389343,6.18752816 Z M20.4374557,16.312504 L20.4374557,11.8125148 L16.2187158,11.8125148 L15.0937185,14.0625094 L8.90623324,14.0625094 L7.78123592,11.8125148 L3.56249598,11.8125148 L3.56249598,16.312504 L20.4374557,16.312504 Z" id="Recent" fill="#5361FD"></path>
    </g>
</svg>