<?xml version="1.0" encoding="UTF-8"?>
<svg width="24px" height="24px" viewBox="0 0 24 24" version="1.1" xmlns="http://www.w3.org/2000/svg" xmlns:xlink="http://www.w3.org/1999/xlink">
    <!-- Generator: Sketch 52.3 (67297) - http://www.bohemiancoding.com/sketch -->
    <title>icon/recent inactive</title>
    <desc>Created with Sketch.</desc>
    <g id="icon/recent-inactive" stroke="none" stroke-width="1" fill="none" fill-rule="evenodd">
        <g id="Group">
            <circle id="Oval" stroke="#89969F" stroke-width="1.5" fill-rule="nonzero" cx="12" cy="12" r="12"></circle>
            <g id="icon/Recent-Inactive" transform="translate(4.000000, 4.000000)" fill="#89969F">
                <path d="M14.5390308,7.03126185 C14.6796555,7.2187614 14.7499678,7.4296984 14.7499678,7.66407284 L14.7499678,10.8750027 C14.7499678,11.1875018 14.640593,11.4531264 14.4218436,11.6718758 C14.2030942,11.8906251 13.9374696,12 13.6249705,12 L2.37499732,12 C2.06249818,12 1.79687358,11.8906251 1.57812422,11.6718758 C1.35937486,11.4531264 1.25,11.1875018 1.25,10.8750027 L1.25,7.66407284 C1.25,7.4296984 1.32031233,7.2187614 1.460937,7.03126185 L3.92186863,3.49220778 C4.01561841,3.33595804 4.14452435,3.21486481 4.30858646,3.1289274 C4.47264857,3.04298999 4.6484294,3.00002146 4.83592895,3.00002146 L11.1640389,3.00002146 C11.3515384,3.00002146 11.5273192,3.04298999 11.6913814,3.1289274 C11.8554435,3.21486481 11.9843494,3.33595804 12.0780992,3.49220778 L14.5390308,7.03126185 Z M4.83592895,4.12501878 L3.00780831,6.75001252 L5.89061394,6.75001252 L6.64061215,8.25000894 L9.35935567,8.25000894 L10.1093539,6.75001252 L12.9921595,6.75001252 L11.1640389,4.12501878 L4.83592895,4.12501878 Z M13.6249705,10.8750027 L13.6249705,7.87500983 L10.8124772,7.87500983 L10.062479,9.37500626 L5.93748882,9.37500626 L5.18749061,7.87500983 L2.37499732,7.87500983 L2.37499732,10.8750027 L13.6249705,10.8750027 Z" id="Recent"></path>
            </g>
        </g>
    </g>
</svg>