<?xml version="1.0" encoding="UTF-8"?>
<svg width="24px" height="24px" viewBox="0 0 24 24" version="1.1" xmlns="http://www.w3.org/2000/svg" xmlns:xlink="http://www.w3.org/1999/xlink">
    <!-- Generator: Sketch 52.3 (67297) - http://www.bohemiancoding.com/sketch -->
    <title>icon/Solid Apps</title>
    <desc>Created with Sketch.</desc>
    <g id="icon/Solid-Apps" stroke="none" stroke-width="1" fill="none" fill-rule="evenodd">
        <g id="Group-2" transform="translate(1.000000, 0.000000)">
            <g id="Group-3">
                <path d="M11.1097853,23.9998202 C10.4207597,24.0063519 9.73009552,23.8348967 9.10989056,23.4854547 L2.10083712,19.5370873 C0.859607905,18.8382034 0.0870144053,17.5318783 0.0739057139,16.1112499 L0.000169324757,8.08796471 C-0.0129393666,6.66733622 0.73589463,5.34794793 1.96401516,4.62620334 L8.8993322,0.551285648 C9.51380211,0.190413354 10.2011891,0.00671139473 10.8902147,0.000179769502 C11.5792403,-0.00635185573 12.2699045,0.165103307 12.8901094,0.514545257 L19.8991629,4.46291271 C21.1403921,5.16179661 21.9129856,6.46812166 21.9260943,7.88875014 L21.9998307,15.9120353 C22.0129394,17.3326638 21.2641054,18.6520521 20.0359848,19.3737967 L13.1006678,23.4487144 C12.4861979,23.8095866 11.7988109,23.9932886 11.1097853,23.9998202" id="fill/-1" fill="#545D9C"></path>
                <path d="M13.088496,9.97662455 C12.6586916,9.53696035 12.6586916,8.82508043 13.088496,8.38631168 C13.5183004,7.94664748 14.2154988,7.94754292 14.6453032,8.38631168 C15.0760049,8.82508043 15.0760049,9.53696035 14.6453032,9.97662455 C14.2163961,10.4162887 13.5183004,10.4162887 13.088496,9.97662455 M12.3634814,14.2228315 C12.3634814,14.2228315 17.4403778,10.5676192 16.8768764,6.383198 C16.8643142,6.29096702 16.8338062,6.23097211 16.7961198,6.18978157 C16.7566388,6.15217282 16.6983146,6.1208322 16.6076878,6.1074005 C12.5106379,5.53431478 8.93132725,10.7180542 8.93132725,10.7180542 C5.82578851,10.3464439 6.05100961,10.9651974 4.63507776,14.3598349 C4.36319731,15.0072426 4.80287196,15.2311042 5.28471949,15.0484332 C5.76656703,14.867553 6.82986186,14.466393 6.82986186,14.466393 L8.69264672,16.3674258 C8.69264672,16.3674258 8.29963142,17.4536023 8.12196696,17.9452024 C7.94430251,18.4376979 8.16234525,18.8863166 8.79673297,18.6105191 C12.122109,17.1625822 12.7277833,17.3936074 12.3634814,14.2228315" id="fill/-3" fill="#FFFFFF"></path>
            </g>
        </g>
    </g>
</svg>