<?xml version="1.0" encoding="UTF-8"?>
<svg width="24px" height="24px" viewBox="0 0 24 24" version="1.1" xmlns="http://www.w3.org/2000/svg" xmlns:xlink="http://www.w3.org/1999/xlink">
    <!-- Generator: Sketch 52.3 (67297) - http://www.bohemiancoding.com/sketch -->
    <title>Spreadsheet</title>
    <desc>Created with Sketch.</desc>
    <g id="Spreadsheet" stroke="none" stroke-width="1" fill="none" fill-rule="evenodd">
        <path d="M19.8780071,4.25 L4.12195972,4.25 C3.77847407,4.25 3.5,4.52844086 3.5,4.87192652 C3.5,5.08210189 3.5,18.8486219 3.5,19.0557758 C3.5,19.3992614 3.77847407,19.6777355 4.12195972,19.6777355 L19.8780403,19.6777355 C20.2215259,19.6777355 20.5,19.3992614 20.5,19.0557758 C20.5,18.8494188 20.5,5.08253353 20.5,4.87192652 C20.4999668,4.52844086 20.2214927,4.25 19.8780071,4.25 Z M11.3840002,18.4338493 L4.74388624,18.4338493 L4.74388624,14.9498521 L11.3840002,14.9498521 L11.3840002,18.4338493 Z M11.3840002,13.7058995 L4.74388624,13.7058995 L4.74388624,10.221836 L11.3840002,10.221836 L11.3840002,13.7058995 Z M19.2560806,18.4338493 L12.6278865,18.4338493 L12.6278865,14.9498521 L19.2560806,14.9498521 L19.2560806,18.4338493 Z M19.2560806,13.7058995 L12.6278865,13.7058995 L12.6278865,10.221836 L19.2560806,10.221836 L19.2560806,13.7058995 Z M19.2560806,8.97791655 L4.74388624,8.97791655 L4.74388624,5.49388624 L19.2560806,5.49388624 L19.2560806,8.97791655 Z" id="Shape" fill="#22A965" fill-rule="nonzero"></path>
    </g>
</svg>