<?xml version="1.0" encoding="UTF-8"?>
<svg width="24px" height="24px" viewBox="0 0 24 24" version="1.1" xmlns="http://www.w3.org/2000/svg" xmlns:xlink="http://www.w3.org/1999/xlink">
    <!-- Generator: Sketch 52.3 (67297) - http://www.bohemiancoding.com/sketch -->
    <title>icon/things-color</title>
    <desc>Created with Sketch.</desc>
    <g id="icon/things-color" stroke="none" stroke-width="1" fill="none" fill-rule="evenodd">
        <g id="Group" transform="translate(3.250000, 1.000000)" fill="#7C55FB" fill-rule="nonzero">
            <path d="M1,2 L6.5,2 C7.05228475,2 7.5,2.44771525 7.5,3 L7.5,8.5 C7.5,9.05228475 7.05228475,9.5 6.5,9.5 L1,9.5 C0.44771525,9.5 6.76353751e-17,9.05228475 0,8.5 L0,3 C-6.76353751e-17,2.44771525 0.44771525,2 1,2 Z" id="Rectangle" fill-opacity="0.8"></path>
            <path d="M11,2 L16.5,2 C17.0522847,2 17.5,2.44771525 17.5,3 L17.5,8.5 C17.5,9.05228475 17.0522847,9.5 16.5,9.5 L11,9.5 C10.4477153,9.5 10,9.05228475 10,8.5 L10,3 C10,2.44771525 10.4477153,2 11,2 Z" id="Rectangle-Copy" fill-opacity="0.6" transform="translate(13.750000, 5.750000) rotate(45.000000) translate(-13.750000, -5.750000) "></path>
            <path d="M1,12 L6.5,12 C7.05228475,12 7.5,12.4477153 7.5,13 L7.5,18.5 C7.5,19.0522847 7.05228475,19.5 6.5,19.5 L1,19.5 C0.44771525,19.5 6.76353751e-17,19.0522847 0,18.5 L0,13 C-6.76353751e-17,12.4477153 0.44771525,12 1,12 Z" id="Rectangle" fill-opacity="0.8"></path>
            <path d="M11,12 L16.5,12 C17.0522847,12 17.5,12.4477153 17.5,13 L17.5,18.5 C17.5,19.0522847 17.0522847,19.5 16.5,19.5 L11,19.5 C10.4477153,19.5 10,19.0522847 10,18.5 L10,13 C10,12.4477153 10.4477153,12 11,12 Z" id="Rectangle" fill-opacity="0.8"></path>
        </g>
    </g>
</svg>