<?xml version="1.0" encoding="UTF-8"?>
<svg width="21px" height="21px" viewBox="0 0 21 21" version="1.1" xmlns="http://www.w3.org/2000/svg" xmlns:xlink="http://www.w3.org/1999/xlink">
    <!-- Generator: Sketch 52.3 (67297) - http://www.bohemiancoding.com/sketch -->
    <title>icon/Upload</title>
    <desc>Created with Sketch.</desc>
    <g id="icon/Upload" stroke="none" stroke-width="1" fill="none" fill-rule="evenodd">
        <path d="M12.0937285,16.0624975 L8.90623607,16.0624975 C8.68488226,16.0624975 8.496732,15.9850239 8.34178429,15.8300761 C8.18683657,15.6751284 8.10936297,15.4869782 8.10936297,15.2656244 L8.10936297,8.6250152 L4.6562462,8.6250152 C4.43489239,8.6250152 4.24674214,8.54754159 4.09179442,8.39259388 C3.9368467,8.23764616 3.8593731,8.04949591 3.8593731,7.8281421 C3.8593731,7.60678829 3.9368467,7.41863804 4.09179442,7.26369032 L9.93553049,1.41995425 C10.0904782,1.26500654 10.2786285,1.18753293 10.4999823,1.18753293 C10.7213361,1.18753293 10.9094863,1.26500654 11.064434,1.41995425 L16.9081701,7.26369032 C17.0631178,7.41863804 17.1405914,7.60678829 17.1405914,7.8281421 C17.1405914,8.04949591 17.0631178,8.23764616 16.9081701,8.39259388 C16.7532224,8.54754159 16.5650721,8.6250152 16.3437183,8.6250152 L12.8906016,8.6250152 L12.8906016,15.2656244 C12.8906016,15.4869782 12.813128,15.6751284 12.6581802,15.8300761 C12.5032325,15.9850239 12.3150823,16.0624975 12.0937285,16.0624975 Z" id="ï—" fill="#666666"></path>
        <rect id="Rectangle" fill="#666666" fill-rule="nonzero" x="2" y="18" width="17" height="2" rx="0.5"></rect>
    </g>
</svg>