<?xml version="1.0" encoding="UTF-8"?>
<svg width="21px" height="21px" viewBox="0 0 21 21" version="1.1" xmlns="http://www.w3.org/2000/svg" xmlns:xlink="http://www.w3.org/1999/xlink">
    <!-- Generator: Sketch 52.3 (67297) - http://www.bohemiancoding.com/sketch -->
    <title>icon/Users</title>
    <desc>Created with Sketch.</desc>
    <g id="icon/Users" stroke="none" stroke-width="1" fill="none" fill-rule="evenodd">
        <path d="M1.74999106,9.25002086 C1.07290954,9.25002086 0.486973436,9.00262582 -0.00781724975,8.50783513 C-0.502607935,8.01304445 -0.75000298,7.42710834 -0.75000298,6.75002682 C-0.75000298,6.0729453 -0.502607935,5.4870092 -0.00781724975,4.99221851 C0.486973436,4.49742783 1.07290954,4.25003278 1.74999106,4.25003278 C2.42707258,4.25003278 3.01300868,4.49742783 3.50779937,4.99221851 C4.00259005,5.4870092 4.2499851,6.0729453 4.2499851,6.75002682 C4.2499851,7.42710834 4.00259005,8.01304445 3.50779937,8.50783513 C3.01300868,9.00262582 2.42707258,9.25002086 1.74999106,9.25002086 Z M19.2499493,9.25002086 C18.5728678,9.25002086 17.9869317,9.00262582 17.492141,8.50783513 C16.9973503,8.01304445 16.7499553,7.42710834 16.7499553,6.75002682 C16.7499553,6.0729453 16.9973503,5.4870092 17.492141,4.99221851 C17.9869317,4.49742783 18.5728678,4.25003278 19.2499493,4.25003278 C19.9270309,4.25003278 20.512967,4.49742783 21.0077576,4.99221851 C21.5025483,5.4870092 21.7499434,6.0729453 21.7499434,6.75002682 C21.7499434,7.42710834 21.5025483,8.01304445 21.0077576,8.50783513 C20.512967,9.00262582 19.9270309,9.25002086 19.2499493,9.25002086 Z M20.4999464,10.5000179 C21.1770279,10.5000179 21.762964,10.7474129 22.2577547,11.2422036 C22.7525454,11.7369943 22.9999404,12.3229304 22.9999404,13.0000119 L22.9999404,14.2500089 C22.9999404,14.58855 22.8762426,14.8815181 22.6288475,15.1289131 C22.3814525,15.3763081 22.0884844,15.500006 21.7499434,15.500006 L19.1718245,15.500006 C19.0416167,14.58855 18.7160962,13.7552183 18.1952644,13.0000119 C17.6744325,12.2448056 17.0233921,11.6588695 16.242144,11.2422036 C16.7369347,10.7474129 17.3228708,10.5000179 17.9999523,10.5000179 L20.4999464,10.5000179 Z M10.4999702,10.5000179 C9.71872206,10.5000179 8.98955693,10.3047058 8.31247541,9.91408178 C7.63539389,9.52345771 7.1015408,8.98960462 6.71091673,8.3125231 C6.32029266,7.63544158 6.12498063,6.90627645 6.12498063,6.12502831 C6.12498063,5.34378017 6.32029266,4.61461505 6.71091673,3.93753353 C7.1015408,3.26045201 7.63539389,2.72659891 8.31247541,2.33597485 C8.98955693,1.94535078 9.71872206,1.75003874 10.4999702,1.75003874 C11.2812183,1.75003874 12.0103835,1.94535078 12.687465,2.33597485 C13.3645465,2.72659891 13.8983996,3.26045201 14.2890237,3.93753353 C14.6796477,4.61461505 14.8749598,5.34378017 14.8749598,6.12502831 C14.8749598,6.90627645 14.6796477,7.63544158 14.2890237,8.3125231 C13.8983996,8.98960462 13.3645465,9.52345771 12.687465,9.91408178 C12.0103835,10.3047058 11.2812183,10.5000179 10.4999702,10.5000179 Z M13.5077755,11.7500149 C14.3150655,11.7500149 15.0637612,11.9518375 15.7538639,12.3554822 C16.4439666,12.7591269 16.9908403,13.3060006 17.394485,13.9961033 C17.7981297,14.686206 17.9999523,15.4349018 17.9999523,16.2421917 L17.9999523,17.3750015 C17.9999523,17.8958334 17.8176609,18.3385411 17.4530786,18.7031233 C17.0884964,19.0677056 16.6457887,19.249997 16.1249568,19.249997 L4.87498361,19.249997 C4.35415172,19.249997 3.91144404,19.0677056 3.54686178,18.7031233 C3.18227951,18.3385411 2.99998808,17.8958334 2.99998808,17.3750015 L2.99998808,16.2421917 C2.99998808,15.4349018 3.20181071,14.686206 3.60545539,13.9961033 C4.00910006,13.3060006 4.55597375,12.7591269 5.24607647,12.3554822 C5.93617919,11.9518375 6.68487493,11.7500149 7.49216487,11.7500149 L7.80466412,11.7500149 C8.69007888,12.1666808 9.58851424,12.3750134 10.4999702,12.3750134 C11.4114262,12.3750134 12.3098615,12.1666808 13.1952763,11.7500149 L13.5077755,11.7500149 Z M4.75779639,11.2422036 C3.97654825,11.6588695 3.32550794,12.2448056 2.80467604,13.0000119 C2.28384415,13.7552183 1.9583237,14.58855 1.82811587,15.500006 L-0.75000298,15.500006 C-1.08854404,15.500006 -1.38151209,15.3763081 -1.62890713,15.1289131 C-1.87630218,14.8815181 -2,14.58855 -2,14.2500089 L-2,13.0000119 C-2,12.3229304 -1.75260496,11.7369943 -1.25781427,11.2422036 C-0.763023584,10.7474129 -0.177087481,10.5000179 0.49999404,10.5000179 L2.99998808,10.5000179 C3.6770696,10.5000179 4.2630057,10.7474129 4.75779639,11.2422036 Z" id="" fill="#666666"></path>
    </g>
</svg>