<?xml version="1.0" encoding="utf-8"?>
<!-- Generator: Adobe Illustrator 22.1.0, SVG Export Plug-In . SVG Version: 6.00 Build 0)  -->
<svg version="1.1" id="Layer_1" xmlns="http://www.w3.org/2000/svg" xmlns:xlink="http://www.w3.org/1999/xlink" x="0px" y="0px"
	 viewBox="0 0 24 24" style="enable-background:new 0 0 24 24;" xml:space="preserve">
<style type="text/css">
	.st0{fill:#F7F7F7;}
	.st1{opacity:0.3;fill:#444444;enable-background:new    ;}
</style>
<title>icon/Solid Active</title>
<desc>Created with Sketch.</desc>
<g id="solid-logo" transform="translate(0.000000, 1.100000)">
	<path class="st0" d="M23.7,9.5l-4.8-8.3C18.5,0.5,17.6,0,16.8,0H7.2C6.4,0,5.5,0.5,5.1,1.2L0.3,9.5c-0.4,0.8-0.4,1.7,0,2.5l4.8,8.3
		c0.4,0.8,1.3,1.2,2.1,1.2h9.5c0.9,0,1.7-0.5,2.1-1.2l4.8-8.3C24.1,11.2,24.1,10.3,23.7,9.5z M23,11.9l-4.5,7.8
		c-0.4,0.7-1.2,1.2-2,1.2h-9c-0.8,0-1.6-0.4-2-1.2L1,11.9c-0.4-0.7-0.4-1.6,0-2.3l4.5-7.8c0.4-0.7,1.2-1.2,2-1.2h9
		c0.8,0,1.6,0.4,2,1.2L23,9.6C23.4,10.3,23.4,11.2,23,11.9z"/>
	<path id="XMLID_2_" class="st0" d="M7.5,9.2h9.2c0.1,0,0.2-0.1,0.2-0.2V7.3c0-1.1-0.9-2.1-2.1-2.1H9.3c-1.6,0-2.9,1.3-2.9,2.9
		C6.4,8.8,6.9,9.2,7.5,9.2z"/>
	<path id="XMLID_3_" class="st0" d="M8.4,16.9h5.5c1.7,0,3-1.4,3-3c0-0.6-0.4-1-1-1H6.6c-0.1,0-0.2,0.1-0.2,0.2v1.8
		C6.4,16,7.3,16.9,8.4,16.9z"/>
	<path id="XMLID_4_" class="st0" d="M6.8,9l6.9,6.9c0.5,0.5,1.2,0.5,1.6,0l1.2-1.2c0.5-0.5,0.5-1.2,0-1.6L9.6,6.2
		C9.2,5.7,8.4,5.7,8,6.2L6.8,7.4C6.3,7.8,6.3,8.6,6.8,9z"/>
	<polygon id="XMLID_6_" class="st1" points="13.8,16 9.7,12.9 10.6,12.9 	"/>
	<polygon id="XMLID_5_" class="st1" points="9.5,6.1 12.7,9.2 13.8,9.2 	"/>
</g>
</svg>
