<?xml version="1.0" encoding="UTF-8"?>
<svg width="24px" height="24px" viewBox="0 0 24 24" version="1.1" xmlns="http://www.w3.org/2000/svg" xmlns:xlink="http://www.w3.org/1999/xlink">
    <!-- Generator: Sketch 52.3 (67297) - http://www.bohemiancoding.com/sketch -->
    <title>icon/Solid Active</title>
    <desc>Created with Sketch.</desc>
    <g id="icon/Solid-Active" stroke="none" stroke-width="1" fill="none" fill-rule="evenodd">
        <g id="solid-logo" transform="translate(0.000000, 1.100000)" fill-rule="nonzero">
            <path d="M5.09591837,20.2326531 L0.332653061,11.9714286 C-0.108163265,11.2061224 -0.108163265,10.2632653 0.332653061,9.49795918 L5.09591837,1.24285714 C5.53877551,0.475510204 6.35714286,0.00408163265 7.23877551,0.00408163265 L16.7591837,0.00408163265 C17.6428571,0.00408163265 18.4632653,0.475510204 18.9020408,1.24285714 L23.6673469,9.50204082 C24.1081633,10.2673469 24.1081633,11.2102041 23.6673469,11.9755102 L18.9040816,20.2367347 C18.4612245,21.0040816 17.6428571,21.4755102 16.7612245,21.4755102 L7.24489796,21.4755102 C6.35714286,21.4714286 5.54081633,20.9979592 5.09591837,20.2326531 Z" id="XMLID_7_" fill="#FFFFFF"></path>
            <path d="M5.50204082,19.6714286 L1.02244898,11.9020408 C0.606122449,11.1816327 0.606122449,10.2938776 1.02244898,9.5755102 L5.50204082,1.80408163 C5.92040816,1.08163265 6.68979592,0.63877551 7.52040816,0.63877551 L16.4795918,0.63877551 C17.3102041,0.63877551 18.0816327,1.08163265 18.4979592,1.80408163 L22.9816327,9.57142857 C23.3979592,10.2918367 23.3979592,11.1795918 22.9816327,11.8979592 L18.5,19.6734694 C18.0816327,20.3959184 17.3122449,20.8387755 16.4816327,20.8387755 L7.5244898,20.8387755 C6.68979592,20.8387755 5.92040816,20.3938776 5.50204082,19.6714286 Z" id="XMLID_1_" fill="#7C55FB"></path>
            <path d="M7.4877551,9.24285714 L16.7061224,9.24285714 C16.822449,9.24285714 16.9142857,9.14897959 16.9142857,9.03469388 L16.9142857,7.30612245 C16.9142857,6.15714286 15.9816327,5.2244898 14.8326531,5.2244898 L9.29795918,5.2244898 C7.6877551,5.22244898 6.38367347,6.52653061 6.38367347,8.13673469 C6.38163265,8.75102041 6.8755102,9.24285714 7.4877551,9.24285714 Z" id="XMLID_2_" fill="#F7F7F7"></path>
            <path d="M8.39183673,16.8795918 L13.9,16.8795918 C15.5632653,16.8795918 16.9142857,15.5285714 16.9142857,13.8653061 C16.9142857,13.3102041 16.4653061,12.8591837 15.9081633,12.8591837 L6.58367347,12.8591837 C6.46938776,12.8591837 6.38367347,12.9510204 6.38367347,13.0591837 L6.38367347,14.8673469 C6.38163265,15.9795918 7.28367347,16.8795918 8.39183673,16.8795918 Z" id="XMLID_3_" fill="#F7F7F7"></path>
            <path d="M6.79183673,9.01428571 L13.6673469,15.8897959 C14.122449,16.344898 14.8591837,16.344898 15.3142857,15.8897959 L16.5061224,14.6979592 C16.9612245,14.2428571 16.9612245,13.5061224 16.5061224,13.0510204 L9.63265306,6.1755102 C9.17755102,5.72040816 8.44081633,5.72040816 7.98571429,6.1755102 L6.79387755,7.36734694 C6.33469388,7.82244898 6.33469388,8.56122449 6.79183673,9.01428571 Z" id="XMLID_4_" fill="#F7F7F7"></path>
            <polygon id="XMLID_6_" fill="#444444" opacity="0.3" points="13.7795918 16.0061224 9.74081633 12.8591837 10.6346939 12.8591837"></polygon>
            <polygon id="XMLID_5_" fill="#444444" opacity="0.3" points="9.51836735 6.06122449 12.7 9.24285714 13.7795918 9.24285714"></polygon>
        </g>
    </g>
</svg>