<?xml version="1.0" encoding="UTF-8"?>
<svg width="24px" height="24px" viewBox="0 0 24 24" version="1.1" xmlns="http://www.w3.org/2000/svg" xmlns:xlink="http://www.w3.org/1999/xlink">
    <!-- Generator: Sketch 52.3 (67297) - http://www.bohemiancoding.com/sketch -->
    <title>icon/things/inactive Copy</title>
    <desc>Created with Sketch.</desc>
    <g id="icon/things/inactive-Copy" stroke="none" stroke-width="1" fill="none" fill-rule="evenodd">
        <path d="M5,4.625 C4.79289322,4.625 4.625,4.79289322 4.625,5 L4.625,10 C4.625,10.2071068 4.79289322,10.375 5,10.375 L10,10.375 C10.2071068,10.375 10.375,10.2071068 10.375,10 L10.375,5 C10.375,4.79289322 10.2071068,4.625 10,4.625 L5,4.625 Z M5,13.625 C4.79289322,13.625 4.625,13.7928932 4.625,14 L4.625,19 C4.625,19.2071068 4.79289322,19.375 5,19.375 L10,19.375 C10.2071068,19.375 10.375,19.2071068 10.375,19 L10.375,14 C10.375,13.7928932 10.2071068,13.625 10,13.625 L5,13.625 Z M14,13.625 C13.7928932,13.625 13.625,13.7928932 13.625,14 L13.625,19 C13.625,19.2071068 13.7928932,19.375 14,19.375 L19,19.375 C19.2071068,19.375 19.375,19.2071068 19.375,19 L19.375,14 C19.375,13.7928932 19.2071068,13.625 19,13.625 L14,13.625 Z M16.765165,3.69930105 C16.6187184,3.55285444 16.3812816,3.55285444 16.234835,3.69930105 L12.6993011,7.23483496 C12.5528544,7.38128157 12.5528544,7.61871843 12.6993011,7.76516504 L16.234835,11.3006989 C16.3812816,11.4471456 16.6187184,11.4471456 16.765165,11.3006989 L20.3006989,7.76516504 C20.4471456,7.61871843 20.4471456,7.38128157 20.3006989,7.23483496 L16.765165,3.69930105 Z" id="Combined-Shape" stroke="#5361FD" stroke-width="1.25" fill-rule="nonzero"></path>
    </g>
</svg>