<?xml version="1.0" encoding="UTF-8"?>
<svg width="24px" height="24px" viewBox="0 0 24 24" version="1.1" xmlns="http://www.w3.org/2000/svg" xmlns:xlink="http://www.w3.org/1999/xlink">
    <!-- Generator: Sketch 52.3 (67297) - http://www.bohemiancoding.com/sketch -->
    <title>icon/things/v2 inactive</title>
    <desc>Created with Sketch.</desc>
    <g id="icon/things/v2-inactive" stroke="none" stroke-width="1" fill="none" fill-rule="evenodd">
        <path d="M18.8046439,3.03124754 L23.6171324,11.2812279 C23.789007,11.5963311 23.8749443,11.9400802 23.8749443,12.3124754 C23.8749443,12.6848706 23.789007,13.0286198 23.6171324,13.343723 L18.7616752,21.5937033 C18.5898006,21.9088065 18.3463114,22.1594574 18.0312082,22.3456546 C17.716105,22.5318519 17.3723558,22.6249508 16.9999607,22.6249508 L7.37498361,22.6249508 C7.00258844,22.6249508 6.65883926,22.5318519 6.34373607,22.3456546 C6.02863287,22.1594574 5.78514365,21.9088065 5.61326906,21.5937033 L0.757811885,13.343723 C0.585937295,13.0286198 0.5,12.6848706 0.5,12.3124754 C0.5,11.9400802 0.600259959,11.5963311 0.800780533,11.2812279 L5.61326906,3.03124754 C5.78514365,2.71614434 6.02863287,2.46549346 6.34373607,2.27929621 C6.65883926,2.09309895 7.00258844,2 7.37498361,2 L16.9999607,2 C17.3723558,2 17.716105,2.09309895 18.0312082,2.27929621 C18.3463114,2.46549346 18.6041233,2.71614434 18.8046439,3.03124754 Z M22.4140103,12.6562246 C22.5285935,12.4270587 22.5285935,12.1978921 22.4140103,11.9687262 L17.6015217,3.7187459 C17.4582931,3.48958 17.2577725,3.37499672 16.9999607,3.37499672 L7.37498361,3.37499672 C7.11717172,3.37499672 6.91665115,3.48958 6.77342254,3.7187459 L1.96093402,11.9687262 C1.81770541,12.1978921 1.81770541,12.4270587 1.96093402,12.6562246 L6.77342254,20.9062049 C6.91665115,21.1353708 7.11717172,21.2499541 7.37498361,21.2499541 L16.9999607,21.2499541 C17.2577725,21.2499541 17.4582931,21.1353708 17.6015217,20.9062049 L22.4140103,12.6562246 Z" id="Windows-Copy" fill="#89969F"></path>
        <g id="Group-8" transform="translate(7.000000, 6.000000)">
            <path d="M10.4404934,4.16116009 L11.652029,6.25044082 C11.6952981,6.33023969 11.7169327,6.41729305 11.7169327,6.51160092 C11.7169327,6.60590878 11.6952981,6.69296215 11.652029,6.77276101 L10.4296761,8.86204174 C10.386407,8.9418406 10.325109,9.00531712 10.2457823,9.05247097 C10.1664557,9.09962482 10.0799174,9.12320183 9.98616757,9.12320183 L7.56309642,9.12320183 C7.46934659,9.12320183 7.38280834,9.09962482 7.30348166,9.05247097 C7.22415498,9.00531712 7.16285699,8.9418406 7.11958786,8.86204174 L5.89723501,6.77276101 C5.85396588,6.69296215 5.83233132,6.60590878 5.83233132,6.51160092 C5.83233132,6.41729305 5.85757159,6.33023969 5.90805229,6.25044082 L7.11958786,4.16116009 C7.16285699,4.08136123 7.22415498,4.01788471 7.30348166,3.97073086 C7.38280834,3.92357701 7.46934659,3.9 7.56309642,3.9 L9.98616757,3.9 C10.0799174,3.9 10.1664557,3.92357701 10.2457823,3.97073086 C10.325109,4.01788471 10.3900127,4.08136123 10.4404934,4.16116009 Z M11.3491451,6.59865428 C11.3779912,6.54061876 11.3779912,6.48258307 11.3491451,6.42454755 L10.1376095,4.33526682 C10.101552,4.2772313 10.0510713,4.24821346 9.98616757,4.24821346 L7.56309642,4.24821346 C7.49819273,4.24821346 7.44771203,4.2772313 7.41165448,4.33526682 L6.2001189,6.42454755 C6.16406135,6.48258307 6.16406135,6.54061876 6.2001189,6.59865428 L7.41165448,8.68793501 C7.44771203,8.74597053 7.49819273,8.77498838 7.56309642,8.77498838 L9.98616757,8.77498838 C10.0510713,8.77498838 10.101552,8.74597053 10.1376095,8.68793501 L11.3491451,6.59865428 Z" id="Windows-Copy-4" fill="#656E75"></path>
            <path d="M3.23076923,5.10714286 L3.23076923,8.82142857" id="Line-3" stroke="#89969F" stroke-width="0.5" opacity="0.3109375" stroke-linecap="round" stroke-linejoin="round"></path>
            <path d="M6.92307692,7.89285714 L3.92307692,9.75" id="Line-3-Copy" stroke="#89969F" stroke-width="0.5" opacity="0.3109375" stroke-linejoin="round"></path>
            <path d="M6.92307692,3.25 L3.92307692,5.10714286" id="Line-3-Copy-2" stroke="#89969F" stroke-width="0.5" opacity="0.3109375" stroke-linejoin="round" transform="translate(5.538462, 4.178571) scale(1, -1) translate(-5.538462, -4.178571) "></path>
            <path d="M4.90203187,7.63170701 L6.11356744,9.72098775 C6.15683657,9.80078661 6.17847113,9.88783997 6.17847113,9.98214784 C6.17847113,10.0764557 6.15683657,10.1635091 6.11356744,10.2433079 L4.89121459,12.3325887 C4.84794546,12.4123875 4.78664747,12.475864 4.7073208,12.5230179 C4.62799412,12.5701717 4.54145586,12.5937488 4.44770603,12.5937488 L2.02463488,12.5937488 C1.93088505,12.5937488 1.8443468,12.5701717 1.76502012,12.5230179 C1.68569344,12.475864 1.62439545,12.4123875 1.58112633,12.3325887 L0.358773471,10.2433079 C0.315504343,10.1635091 0.29386978,10.0764557 0.29386978,9.98214784 C0.29386978,9.88783997 0.319110049,9.80078661 0.369590753,9.72098775 L1.58112633,7.63170701 C1.62439545,7.55190815 1.68569344,7.48843163 1.76502012,7.44127778 C1.8443468,7.39412393 1.93088505,7.37054692 2.02463488,7.37054692 L4.44770603,7.37054692 C4.54145586,7.37054692 4.62799412,7.39412393 4.7073208,7.44127778 C4.78664747,7.48843163 4.85155117,7.55190815 4.90203187,7.63170701 Z" id="Windows-Copy-3" fill="#89969F"></path>
            <path d="M4.90203187,0.725445806 L6.11356744,2.81472654 C6.15683657,2.8945254 6.17847113,2.98157876 6.17847113,3.07588663 C6.17847113,3.1701945 6.15683657,3.25724786 6.11356744,3.33704672 L4.89121459,5.42632746 C4.84794546,5.50612632 4.78664747,5.56960284 4.7073208,5.61675669 C4.62799412,5.66391054 4.54145586,5.68748755 4.44770603,5.68748755 L2.02463488,5.68748755 C1.93088505,5.68748755 1.8443468,5.66391054 1.76502012,5.61675669 C1.68569344,5.56960284 1.62439545,5.50612632 1.58112633,5.42632746 L0.358773471,3.33704672 C0.315504343,3.25724786 0.29386978,3.1701945 0.29386978,3.07588663 C0.29386978,2.98157876 0.319110049,2.8945254 0.369590753,2.81472654 L1.58112633,0.725445806 C1.62439545,0.645646944 1.68569344,0.582170423 1.76502012,0.535016572 C1.8443468,0.487862722 1.93088505,0.464285714 2.02463488,0.464285714 L4.44770603,0.464285714 C4.54145586,0.464285714 4.62799412,0.487862722 4.7073208,0.535016572 C4.78664747,0.582170423 4.85155117,0.645646944 4.90203187,0.725445806 Z" id="Windows-Copy-2" fill="#89969F"></path>
        </g>
    </g>
</svg>